<?xml version="1.0" encoding="UTF-8" standalone="no"?>
<svg width="100" height="100" viewBox="0 0 100 100" version="1.1" xmlns="http://www.w3.org/2000/svg"><circle style="fill:#ffffff" cx="50" cy="50" r="49" /><path style="fill:#000000" d="M 50 0 C 22.398171 0 0 22.398171 0 50 C 0 54.057809 0.53568493 57.981519 1.4492188 61.759766 L 1.4355469 61.806641 C 1.4437236 61.809153 1.45469 61.810001 1.4628906 61.8125 C 6.7823807 83.707694 26.474977 100 50 100 C 77.601829 100 100 77.601829 100 50 C 100 22.398171 77.601829 0 50 0 z M 50 2.0957031 C 56.257063 2.0957031 62.233153 3.2937288 67.710938 5.4726562 C 67.685147 7.916074 67.642395 10.350095 67.474609 12.835938 C 61.496592 13.062841 56.475871 14.502798 51.789062 16.365234 C 49.926048 14.879348 47.086196 13.635546 43.726562 12.699219 C 40.611608 11.831083 37.058248 11.259765 33.488281 11.189453 L 33.275391 5.09375 C 38.48167 3.1554979 44.116027 2.0957031 50 2.0957031 z M 69.816406 6.3691406 C 80.345963 11.155664 88.832799 19.640468 93.623047 30.167969 L 93.232422 30.767578 C 89.793906 28.969215 85.177823 27.712768 81.552734 26.800781 C 77.158694 19.789342 73.225358 15.769495 69.552734 13.447266 C 69.730804 11.030656 69.787143 8.6865193 69.816406 6.3691406 z M 32.328125 13.300781 C 36.060748 13.2565 39.887708 13.826797 43.158203 14.738281 C 46.475586 15.662833 49.233343 16.981504 50.667969 18.185547 L 52.871094 33.5625 C 47.022857 38.046376 40.823719 43.868042 36.675781 48.552734 C 31.568748 46.933261 26.420826 45.491475 21.132812 44.65625 C 19.439157 39.636195 17.595053 32.208233 17.386719 26.291016 C 21.892796 20.347337 26.872904 16.017372 32.328125 13.300781 z M 11.822266 26.144531 C 12.999291 26.09149 14.146739 26.124717 15.265625 26.246094 C 15.460852 32.619742 17.398825 40.249479 19.169922 45.457031 C 15.832503 49.611524 14.134539 54.653073 13.017578 60.007812 C 9.0805866 60.511295 5.5045426 60.492253 3.1503906 60.046875 C 2.4597972 56.807323 2.0957031 53.446455 2.0957031 50 C 2.0957031 41.485451 4.3130346 33.491236 8.203125 26.564453 C 9.4382896 26.336994 10.64524 26.197573 11.822266 26.144531 z M 80.970703 28.841797 C 84.837759 29.831022 89.797648 31.239562 92.880859 32.990234 C 94.864671 38.584128 96.934002 44.046625 97.378906 51.994141 C 95.782113 57.158864 92.263802 62.414795 88.375 66.320312 L 78.425781 62.158203 C 77.774676 54.773684 76.100802 47.403202 73.644531 40.050781 L 80.970703 28.841797 z M 54.3125 35.125 C 60.445289 36.517161 66.090002 38.537076 71.626953 40.695312 C 74.06285 47.980949 75.705423 55.250891 76.330078 62.503906 C 72.36428 67.151313 67.716239 71.254508 62.496094 74.898438 C 55.333585 73.900797 47.414199 71.1881 42.291016 68.228516 L 38.056641 50.1875 C 42.115659 45.564076 48.454442 39.597453 54.3125 35.125 z M 97.28125 57.746094 C 95.714527 67.394077 91.270528 76.073273 84.855469 82.873047 L 84.236328 82.341797 C 86.925988 77.834154 88.71209 73.086001 89.591797 68.095703 C 92.541477 65.200207 95.287866 61.604238 97.28125 57.746094 z M 13.267578 62.111328 C 16.210911 68.810953 20.465315 72.56256 24.882812 75.945312 C 24.849121 80.016345 25.825451 85.74885 27.894531 90.097656 C 26.601197 90.118796 25.149626 90.067378 23.539062 89.945312 C 13.904427 83.552864 6.7201511 73.767323 3.6855469 62.289062 C 6.3079646 62.658483 9.6299877 62.577662 13.267578 62.111328 z M 41.232422 70.060547 C 46.618848 73.172788 54.552142 75.896354 61.945312 76.962891 L 64.724609 87.478516 C 61.336438 90.705192 54.851422 94.82372 49.154297 96.162109 C 41.960683 95.123058 35.826346 93.30222 30.304688 90.146484 C 28.265655 86.377781 27.070879 80.434159 27.001953 76.431641 L 41.232422 70.060547 z M 82.785156 83.884766 L 83.365234 84.382812 C 74.952143 92.548056 63.548623 97.649918 50.949219 97.894531 C 56.78267 96.230599 62.652884 92.384755 66.107422 89.089844 C 72.628643 88.701803 78.188092 86.966627 82.785156 83.884766 z " /></svg>