<?xml version="1.0" encoding="UTF-8" standalone="no"?>
<svg width="350" height="250" viewBox="0 0 350 250" version="1.1" xmlns="http://www.w3.org/2000/svg"><path style="fill:#000000" d="m 96.551679,249.56445 c -1.776907,-0.2691 -8.487005,-1.51551 -14.911294,-2.76942 C 59.91464,242.55454 53.898123,240.47031 48.205323,235.21244 40.550306,228.1423 36.114425,217.87658 34.821751,204.2397 c -0.490053,-5.16983 -0.730582,-6.1931 -1.606715,-6.83614 -0.56674,-0.41593 -2.819754,-1.95504 -5.00674,-3.42025 C 23.50972,190.8355 16.103985,183.62397 12.301542,178.49375 4.1362167,167.4771 0.03652902,155.48745 3.6270789e-4,142.51854 -0.03138531,131.10798 2.0119029,123.87926 9.7402999,108.062 16.555094,94.114546 17.217082,91.892085 17.24826,82.855975 l 0.02494,-7.270779 -2.630127,-5.374414 c -1.446569,-2.955964 -2.758005,-6.188764 -2.9143,-7.184073 -0.384619,-2.449308 0.592309,-5.250092 2.653758,-7.608045 4.614924,-5.278798 13.186806,-4.56584 18.72966,1.557815 7.276687,8.03924 8.90332,25.806029 3.746117,40.917209 -0.856025,2.508322 -3.882671,9.400942 -6.725821,15.316972 -2.843172,5.91607 -5.818809,12.8515 -6.612536,15.41212 -4.365767,14.08426 -2.384568,27.60899 5.6655,38.67564 2.151194,2.95729 7.481159,8.35021 8.25275,8.35021 0.183307,0 0.94148,-1.79134 1.684724,-3.98076 6.635377,-19.54621 20.382237,-34.01626 40.321097,-42.44228 6.712289,-2.83655 13.427036,-4.81701 25.370578,-7.48274 5.15693,-1.15099 10.30216,-2.62276 11.9001,-3.40399 3.2027,-1.5657 7.17419,-5.23385 7.17419,-6.62621 0,-0.51358 -0.75458,-2.11338 -1.67683,-3.55515 -4.10196,-6.41261 -7.76579,-15.878977 -9.01821,-23.300639 -0.95668,-5.669258 -0.94088,-15.335604 0.034,-20.645141 1.63888,-8.928001 5.91999,-18.78838 12.05069,-27.755435 7.66231,-11.207245 26.34621,-27.6753651 38.73944,-34.1451906 5.81502,-3.0357182 8.74677,-3.07676803 10.48308,-0.1468574 1.76013,2.9701798 3.60231,9.935021 4.82313,18.235246 0.18671,1.267695 0.58976,2.182972 0.96185,2.182972 0.35226,0 3.07272,-1.77357 6.04509,-3.94127 11.13011,-8.117005 14.99192,-10.6588393 20.26489,-13.3383124 7.73064,-3.928343 10.65547,-3.6378708 11.52359,1.1444285 0.7336,4.0409069 -1.02316,20.8216449 -3.56039,34.0097349 l -1.21542,6.317621 1.26319,2.227457 c 1.91554,3.377824 4.13008,10.075904 4.96278,15.010527 1.4634,8.672092 0.8264,13.951714 -3.1618,26.205004 -2.96549,9.111217 -3.40414,12.179085 -2.30048,16.088865 0.43861,1.55376 0.92462,4.04392 1.08,5.5337 0.42243,4.05004 -1.7842,8.38318 -7.00543,13.75631 -6.44172,6.62909 -14.38439,10.21937 -24.02623,10.86032 -3.04377,0.20231 -4.79384,0.5502 -5.17864,1.0294 -0.83792,1.0433 0.15232,7.05435 1.75941,10.68239 2.7072,6.1108 10.73609,12.27766 18.07812,13.88547 7.3914,1.61858 13.81384,0.65808 28.15756,-4.21112 9.18403,-3.11771 10.35666,-3.3965 14.46747,-3.43981 3.54546,-0.0391 4.94256,0.17457 6.73534,1.02257 7.07588,3.34619 9.83607,10.41289 6.64883,17.02255 -2.01422,4.17701 -5.79583,7.33327 -13.28969,11.09194 -16.57311,8.31261 -28.67501,11.58025 -40.56219,10.95225 -7.29679,-0.38551 -12.00363,-1.59231 -21.2428,-5.44657 -4.05815,-1.69291 -8.64944,-3.2822 -10.20291,-3.53171 -7.58721,-1.21867 -7.96509,3.51469 -0.83784,10.49523 2.92116,2.86106 18.45755,13.7126 26.05024,18.19506 7.4284,4.38543 11.58074,6.26813 17.04525,7.72842 5.07727,1.35683 8.25343,3.47422 10.25662,6.83755 1.28534,2.15818 1.50561,3.03455 1.50561,5.9911 0,3.02806 -0.18973,3.74211 -1.51041,5.68391 -1.00993,1.48501 -2.48046,2.73353 -4.43826,3.76816 -2.80033,1.47998 -3.18939,1.54524 -8.92755,1.49818 -8.99281,-0.0739 -14.99221,-1.7697 -22.80219,-6.44561 -3.36087,-2.01218 -23.86711,-15.71571 -31.31686,-20.92784 -5.0993,-3.56765 -6.9611,-4.66236 -7.94529,-4.67166 -0.67483,-0.008 -7.92465,3.87878 -9.25496,4.95971 -0.56697,0.46072 0.76524,0.71886 5.97475,1.15763 7.04553,0.59344 10.83092,1.93991 13.68484,4.86783 5.50068,5.64329 3.31128,11.19862 -4.99423,12.67242 -2.79908,0.49669 -5.88601,0.44061 -16.66832,-0.3027 -7.08023,-0.6795 -12.89995,-0.13259 -20.98961,-2.65327 0,0 3.49013,11.02951 -2.64654,14.36561 -2.31481,1.25844 -9.67567,1.66179 -15.159801,0.83068 z M 189.90953,103.62962 c 2.82799,-1.3785 5.76476,-5.250289 6.55086,-8.636512 1.38614,-5.971098 -1.07527,-12.776114 -5.47056,-15.124339 -8.0894,-4.321848 -19.0396,4.384925 -17.64696,14.031545 1.31637,9.118446 8.80162,13.514386 16.56666,9.729306 z m -4.99182,-0.79013 c -2.9978,-3.551519 -2.32478,-10.012637 1.41177,-13.553876 1.9369,-1.835635 3.27787,-2.16536 5.28378,-1.299255 1.87351,0.808963 3.3529,3.386181 3.3529,5.841112 0,2.661117 -2.39959,6.795529 -4.89219,8.429119 -2.59185,1.69857 -4.07316,1.86605 -5.15626,0.5829 z M 155.66912,52.8632 c 6.67979,-3.265572 15.13334,-11.036996 16.42674,-15.101216 0.73262,-2.3021 0.44435,-11.944772 -0.49985,-16.720392 -0.90327,-4.568342 -2.52298,-9.428483 -3.49228,-10.478783 -0.81283,-0.8807896 -1.06265,-0.908091 -2.5519,-0.278484 -0.90796,0.383547 -3.7988,2.903392 -6.42406,5.599192 -7.21153,7.405178 -10.77101,14.479614 -11.97608,23.80225 -0.97595,7.550355 1.20775,14.744032 4.47523,14.742472 0.46314,-2.35e-4 2.28211,-0.704406 4.0422,-1.564888 z m 52.23591,-14.229253 c 0.008,-0.211691 0.34053,-2.812229 0.73735,-5.778543 0.82287,-6.150645 1.55266,-19.518485 1.06556,-19.518485 -0.63542,0 -12.19004,10.818741 -14.18665,13.283084 l -2.03293,2.50926 3.8454,2.330101 c 2.11499,1.2816 5.18748,3.488828 6.82768,4.90498 2.95805,2.553903 3.71324,3.011732 3.74359,2.269603 z m 13.00849,98.424453 c -0.76864,-1.45963 -3.9306,-6.46532 -5.42438,-8.58736 -0.36661,-0.52091 -0.43313,-1.1356 -0.17008,-1.57527 1.17789,-1.96953 6.4839,3.12938 8.26126,7.93884 0.68156,1.84427 0.72336,2.42743 0.21921,3.05544 -0.97047,1.20845 -1.96177,0.92274 -2.88567,-0.83165 z m 6.93271,-9.41472 c -1.46222,-0.96281 -4.09032,-2.39521 -5.84028,-3.183 -3.24378,-1.46036 -4.17248,-2.89777 -2.34141,-3.62389 1.19217,-0.47275 6.88244,1.69377 9.9188,3.77653 3.40562,2.336 3.95747,3.04142 3.1581,4.0368 -0.9196,1.14505 -1.94948,0.93328 -4.89521,-1.00644 z m 4.14962,-7.66511 c -0.82012,-0.36831 -3.39232,-0.97573 -5.71597,-1.34959 -2.32369,-0.3738 -4.61631,-0.88044 -5.09469,-1.12584 -1.17294,-0.60164 -1.10415,-2.31854 0.10885,-2.71638 2.12406,-0.69664 8.94407,0.78396 12.93853,2.80899 1.00041,0.50716 1.25394,2.09321 0.42169,2.63822 -0.84393,0.55267 -0.86378,0.55079 -2.65837,-0.25542 z m -11.18347,-8.50249 c 0,-1.60895 1.21104,-2.62925 4.28538,-3.61054 4.19021,-1.33744 6.23826,-1.33905 7.40576,-0.004 1.23329,1.40829 0.68152,1.82461 -3.73845,2.82093 -5.69922,1.28472 -7.95269,1.51013 -7.95269,0.79549 z" /><ellipse style="fill:none;stroke:#000000;stroke-width:2.09341" cx="300.00107" cy="200.1006" rx="48.952229" ry="48.852699" /><path style="fill:#000000;stroke:none" d="m 269.99499,194.59903 c 6.06227,0.85049 11.93304,2.52915 17.75913,4.40102 l 4.82715,20.51827 -16.50765,7.37468 c -5.06951,-3.80477 -10.05906,-7.78909 -13.25976,-15.79015 1.19702,-6.14681 3.06451,-11.93195 7.18113,-16.50382 z" /><path style="fill:#000000;stroke:none" d="m 300.48432,167.06588 c 5.31883,-2.21812 11.00195,-3.97573 17.99361,-4.07923 4.07973,2.24825 8.46594,6.48458 13.44254,14.55066 l -9.02168,13.77491 c -6.3217,-2.48633 -12.74583,-4.84125 -19.84395,-6.33136 z" /><path style="fill:#000000;stroke:none" d="m 311.5877,225.65154 c 5.96196,-4.02436 11.12933,-8.68309 15.50211,-13.97621 l 12.69362,5.29922 c -0.84552,5.75899 -2.88293,11.20079 -6.11222,16.32541 -4.97739,3.61795 -11.14667,5.57066 -18.50785,5.85811 z" /><path style="fill:#000000;stroke:none" d="m 256.23244,177.14353 c 5.84254,-10.99234 14.83812,-18.812 26.98673,-23.45898 l 0.32504,9.21799 c -6.01192,2.69145 -11.46198,7.28935 -16.35017,13.79369 -3.37293,-0.69198 -7.02679,-0.54288 -10.96158,0.4473 z" /><path style="fill:#000000;stroke:none" d="m 342.49752,182.03708 2.10796,-3.23122 c 3.72869,7.91196 5.30298,16.14747 4.72287,24.7065 l -1.90049,-0.40625 c -0.33763,-9.01607 -2.75464,-14.85839 -4.93034,-21.06903 z" /><path id="rect7" style="fill:#000000;stroke:none" d="m 280.02492,240.0041 c 5.63235,3.27103 11.90037,5.13452 19.28082,6.18521 l 0.69533,3.25637 c -11.46705,-0.33252 -21.60988,-3.80825 -29.54582,-9.77833 3.95362,0.45632 7.14351,0.56856 9.56967,0.33675 z" /><path style="fill:none;stroke:#000000;stroke-width:2.11453" d="m 281.47936,162.43995 c 8.22825,-0.29816 16.96235,2.39259 20.14273,5.34085" id="path7" /><path style="fill:none;stroke:#000000;stroke-width:2.11453" d="m 266.31033,175.27784 c -0.02,6.52269 2.13461,15.00208 4.02177,20.41459" id="path10" /><path style="fill:none;stroke:#000000;stroke-width:2.11453" d="m 287.07989,199.79907 c 4.14672,-4.75236 10.67971,-10.89731 16.73346,-15.49108" id="path15" /><path style="fill:none;stroke:#000000;stroke-width:2.11453" d="m 263.40981,211.10285 c -4.80095,0.63741 -9.08541,0.56113 -11.66151,-0.22883" id="path18" /><path style="fill:none;stroke:#000000;stroke-width:2.11453" d="m 275.9472,225.63138 c -0.11316,4.52896 1.27798,11.83465 4.02535,16.04642" id="path19" /><path style="fill:none;stroke:#000000;stroke-width:2.11453" d="m 291.68735,219.16148 c 5.30251,3.07528 13.36622,5.83336 20.73467,6.8469" id="path20" /><path style="fill:none;stroke:#000000;stroke-width:2.11453" d="m 297.39872,247.5572 c 6.87506,-0.83709 15.02146,-6.09503 18.71815,-9.94544" id="path21" /><path style="fill:none;stroke:#000000;stroke-width:2.11453" d="m 333.13486,232.82417 2.15257,1.84329" id="path22" /><path style="fill:none;stroke:#000000;stroke-width:2.11453" d="m 337.84323,218.35859 c 4.61303,-4.19984 8.91991,-10.30866 10.68301,-16.4046" id="path23" /><path style="fill:none;stroke:#000000;stroke-width:2.11453" d="m 322.58706,190.34669 c 2.5204,7.49363 4.213,14.98726 4.82714,22.48089" id="path24" /><path style="fill:none;stroke:#000000;stroke-width:2.11453" d="m 329.57759,177.54752 c 4.26135,1.05561 10.85346,2.70207 14.5549,5.09872" id="path25" /><path style="fill:none;stroke:#000000;stroke-width:2.11453" d="m 318.47793,163.82773 c 0.24862,-3.19842 0.27356,-6.28524 0.30327,-9.37444" id="path26" /><path style="fill:#000000" d="M 232.23932,91.884898 V 85.44488 l 17.7917,-38.312655 h 7.65627 L 240.33308,85.00827 h 25.99485 v 6.876628 z m 22.85942,8.150082 V 68.890026 h 7.25522 v 31.144954 z m 35.47404,0.50938 q -7.58335,0 -11.37503,-4.038656 -3.75521,-4.075043 -3.75521,-10.988054 V 61.467635 q 0,-7.022169 3.82813,-11.024441 3.82813,-4.002273 11.30211,-4.002273 7.51043,0 11.30211,4.002273 3.82813,3.965885 3.82813,11.024441 V 85.51765 q 0,7.022165 -3.82813,11.024437 -3.79168,4.002273 -11.30211,4.002273 z m 0,-7.058552 q 4.08334,0 5.8698,-2.11029 1.82292,-2.146673 1.82292,-5.857868 V 61.467635 q 0,-3.747583 -1.82292,-5.857872 -1.78646,-2.11029 -5.8698,-2.11029 -4.08334,0 -5.90627,2.11029 -1.78646,2.110289 -1.78646,5.857872 V 85.51765 q 0,3.711195 1.78646,5.857868 1.82293,2.11029 5.90627,2.11029 z m 25.3386,-1.60091 V 85.44488 l 17.7917,-38.312655 h 7.65627 L 324.00515,85.00827 H 350 v 6.876628 z m 22.85942,8.150082 V 68.890026 h 7.25523 v 31.144954 z" /></svg>