<?xml version="1.0" encoding="UTF-8" standalone="no"?>
<svg width="350" height="250" viewBox="0 0 350 250" version="1.1" xmlns="http://www.w3.org/2000/svg"><path style="fill:#000000" d="m 96.551679,249.56445 c -1.776907,-0.2691 -8.487005,-1.51551 -14.911294,-2.76942 C 59.91464,242.55454 53.898123,240.47031 48.205323,235.21244 40.550306,228.1423 36.114425,217.87658 34.821751,204.2397 c -0.490053,-5.16983 -0.730582,-6.1931 -1.606715,-6.83614 -0.56674,-0.41593 -2.819754,-1.95504 -5.00674,-3.42025 C 23.50972,190.8355 16.103985,183.62397 12.301542,178.49375 4.1362167,167.4771 0.03652902,155.48745 3.6270789e-4,142.51854 -0.03138531,131.10798 2.0119029,123.87926 9.7402999,108.062 16.555094,94.114546 17.217082,91.892085 17.24826,82.855975 l 0.02494,-7.270779 -2.630127,-5.374414 c -1.446569,-2.955964 -2.758005,-6.188764 -2.9143,-7.184073 -0.384619,-2.449308 0.592309,-5.250092 2.653758,-7.608045 4.614924,-5.278798 13.186806,-4.56584 18.72966,1.557815 7.276687,8.03924 8.90332,25.806029 3.746117,40.917209 -0.856025,2.508322 -3.882671,9.400942 -6.725821,15.316972 -2.843172,5.91607 -5.818809,12.8515 -6.612536,15.41212 -4.365767,14.08426 -2.384568,27.60899 5.6655,38.67564 2.151194,2.95729 7.481159,8.35021 8.25275,8.35021 0.183307,0 0.94148,-1.79134 1.684724,-3.98076 6.635377,-19.54621 20.382237,-34.01626 40.321097,-42.44228 6.712289,-2.83655 13.427036,-4.81701 25.370578,-7.48274 5.15693,-1.15099 10.30216,-2.62276 11.9001,-3.40399 3.2027,-1.5657 7.17419,-5.23385 7.17419,-6.62621 0,-0.51358 -0.75458,-2.11338 -1.67683,-3.55515 -4.10196,-6.41261 -7.76579,-15.878977 -9.01821,-23.300639 -0.95668,-5.669258 -0.94088,-15.335604 0.034,-20.645141 1.63888,-8.928001 5.91999,-18.78838 12.05069,-27.755435 7.66231,-11.207245 26.34621,-27.6753651 38.73944,-34.1451906 5.81502,-3.0357182 8.74677,-3.07676803 10.48308,-0.1468574 1.76013,2.9701798 3.60231,9.935021 4.82313,18.235246 0.18671,1.267695 0.58976,2.182972 0.96185,2.182972 0.35226,0 3.07272,-1.77357 6.04509,-3.94127 11.13011,-8.117005 14.99192,-10.6588393 20.26489,-13.3383124 7.73064,-3.928343 10.65547,-3.6378708 11.52359,1.1444285 0.7336,4.0409069 -1.02316,20.8216449 -3.56039,34.0097349 l -1.21542,6.317621 1.26319,2.227457 c 1.91554,3.377824 4.13008,10.075904 4.96278,15.010527 1.4634,8.672092 0.8264,13.951714 -3.1618,26.205004 -2.96549,9.111217 -3.40414,12.179085 -2.30048,16.088865 0.43861,1.55376 0.92462,4.04392 1.08,5.5337 0.42243,4.05004 -1.7842,8.38318 -7.00543,13.75631 -6.44172,6.62909 -14.38439,10.21937 -24.02623,10.86032 -3.04377,0.20231 -4.79384,0.5502 -5.17864,1.0294 -0.83792,1.0433 0.15232,7.05435 1.75941,10.68239 2.7072,6.1108 10.73609,12.27766 18.07812,13.88547 7.3914,1.61858 13.81384,0.65808 28.15756,-4.21112 9.18403,-3.11771 10.35666,-3.3965 14.46747,-3.43981 3.54546,-0.0391 4.94256,0.17457 6.73534,1.02257 7.07588,3.34619 9.83607,10.41289 6.64883,17.02255 -2.01422,4.17701 -5.79583,7.33327 -13.28969,11.09194 -16.57311,8.31261 -28.67501,11.58025 -40.56219,10.95225 -7.29679,-0.38551 -12.00363,-1.59231 -21.2428,-5.44657 -4.05815,-1.69291 -8.64944,-3.2822 -10.20291,-3.53171 -7.58721,-1.21867 -7.96509,3.51469 -0.83784,10.49523 2.92116,2.86106 18.45755,13.7126 26.05024,18.19506 7.4284,4.38543 11.58074,6.26813 17.04525,7.72842 5.07727,1.35683 8.25343,3.47422 10.25662,6.83755 1.28534,2.15818 1.50561,3.03455 1.50561,5.9911 0,3.02806 -0.18973,3.74211 -1.51041,5.68391 -1.00993,1.48501 -2.48046,2.73353 -4.43826,3.76816 -2.80033,1.47998 -3.18939,1.54524 -8.92755,1.49818 -8.99281,-0.0739 -14.99221,-1.7697 -22.80219,-6.44561 -3.36087,-2.01218 -23.86711,-15.71571 -31.31686,-20.92784 -5.0993,-3.56765 -6.9611,-4.66236 -7.94529,-4.67166 -0.67483,-0.008 -7.92465,3.87878 -9.25496,4.95971 -0.56697,0.46072 0.76524,0.71886 5.97475,1.15763 7.04553,0.59344 10.83092,1.93991 13.68484,4.86783 5.50068,5.64329 3.31128,11.19862 -4.99423,12.67242 -2.79908,0.49669 -5.88601,0.44061 -16.66832,-0.3027 -7.08023,-0.6795 -12.89995,-0.13259 -20.98961,-2.65327 0,0 3.49013,11.02951 -2.64654,14.36561 -2.31481,1.25844 -9.67567,1.66179 -15.159801,0.83068 z M 189.90953,103.62962 c 2.82799,-1.3785 5.76476,-5.250289 6.55086,-8.636512 1.38614,-5.971098 -1.07527,-12.776114 -5.47056,-15.124339 -8.0894,-4.321848 -19.0396,4.384925 -17.64696,14.031545 1.31637,9.118446 8.80162,13.514386 16.56666,9.729306 z m -4.99182,-0.79013 c -2.9978,-3.551519 -2.32478,-10.012637 1.41177,-13.553876 1.9369,-1.835635 3.27787,-2.16536 5.28378,-1.299255 1.87351,0.808963 3.3529,3.386181 3.3529,5.841112 0,2.661117 -2.39959,6.795529 -4.89219,8.429119 -2.59185,1.69857 -4.07316,1.86605 -5.15626,0.5829 z M 155.66912,52.8632 c 6.67979,-3.265572 15.13334,-11.036996 16.42674,-15.101216 0.73262,-2.3021 0.44435,-11.944772 -0.49985,-16.720392 -0.90327,-4.568342 -2.52298,-9.428483 -3.49228,-10.478783 -0.81283,-0.8807896 -1.06265,-0.908091 -2.5519,-0.278484 -0.90796,0.383547 -3.7988,2.903392 -6.42406,5.599192 -7.21153,7.405178 -10.77101,14.479614 -11.97608,23.80225 -0.97595,7.550355 1.20775,14.744032 4.47523,14.742472 0.46314,-2.35e-4 2.28211,-0.704406 4.0422,-1.564888 z m 52.23591,-14.229253 c 0.008,-0.211691 0.34053,-2.812229 0.73735,-5.778543 0.82287,-6.150645 1.55266,-19.518485 1.06556,-19.518485 -0.63542,0 -12.19004,10.818741 -14.18665,13.283084 l -2.03293,2.50926 3.8454,2.330101 c 2.11499,1.2816 5.18748,3.488828 6.82768,4.90498 2.95805,2.553903 3.71324,3.011732 3.74359,2.269603 z m 13.00849,98.424453 c -0.76864,-1.45963 -3.9306,-6.46532 -5.42438,-8.58736 -0.36661,-0.52091 -0.43313,-1.1356 -0.17008,-1.57527 1.17789,-1.96953 6.4839,3.12938 8.26126,7.93884 0.68156,1.84427 0.72336,2.42743 0.21921,3.05544 -0.97047,1.20845 -1.96177,0.92274 -2.88567,-0.83165 z m 6.93271,-9.41472 c -1.46222,-0.96281 -4.09032,-2.39521 -5.84028,-3.183 -3.24378,-1.46036 -4.17248,-2.89777 -2.34141,-3.62389 1.19217,-0.47275 6.88244,1.69377 9.9188,3.77653 3.40562,2.336 3.95747,3.04142 3.1581,4.0368 -0.9196,1.14505 -1.94948,0.93328 -4.89521,-1.00644 z m 4.14962,-7.66511 c -0.82012,-0.36831 -3.39232,-0.97573 -5.71597,-1.34959 -2.32369,-0.3738 -4.61631,-0.88044 -5.09469,-1.12584 -1.17294,-0.60164 -1.10415,-2.31854 0.10885,-2.71638 2.12406,-0.69664 8.94407,0.78396 12.93853,2.80899 1.00041,0.50716 1.25394,2.09321 0.42169,2.63822 -0.84393,0.55267 -0.86378,0.55079 -2.65837,-0.25542 z m -11.18347,-8.50249 c 0,-1.60895 1.21104,-2.62925 4.28538,-3.61054 4.19021,-1.33744 6.23826,-1.33905 7.40576,-0.004 1.23329,1.40829 0.68152,1.82461 -3.73845,2.82093 -5.69922,1.28472 -7.95269,1.51013 -7.95269,0.79549 z" /><path style="fill:#000000" d="M 232.23932,91.884898 V 85.44488 l 17.7917,-38.312655 h 7.65627 L 240.33308,85.00827 h 25.99485 v 6.876628 z m 22.85942,8.150082 V 68.890026 h 7.25522 v 31.144954 z m 35.47404,0.50938 q -7.58335,0 -11.37503,-4.038656 -3.75521,-4.075043 -3.75521,-10.988054 V 61.467635 q 0,-7.022169 3.82813,-11.024441 3.82813,-4.002273 11.30211,-4.002273 7.51043,0 11.30211,4.002273 3.82813,3.965885 3.82813,11.024441 V 85.51765 q 0,7.022165 -3.82813,11.024437 -3.79168,4.002273 -11.30211,4.002273 z m 0,-7.058552 q 4.08334,0 5.8698,-2.11029 1.82292,-2.146673 1.82292,-5.857868 V 61.467635 q 0,-3.747583 -1.82292,-5.857872 -1.78646,-2.11029 -5.8698,-2.11029 -4.08334,0 -5.90627,2.11029 -1.78646,2.110289 -1.78646,5.857872 V 85.51765 q 0,3.711195 1.78646,5.857868 1.82293,2.11029 5.90627,2.11029 z m 25.3386,-1.60091 V 85.44488 l 17.7917,-38.312655 h 7.65627 L 324.00515,85.00827 H 350 v 6.876628 z m 22.85942,8.150082 V 68.890026 h 7.25523 v 31.144954 z" /><path style="fill:#000000" d="m 300,150 c -27.60183,0 -50,22.39817 -50,50 0,4.05781 0.53568,7.98152 1.44922,11.75977 l -0.0137,0.0469 c 0.008,0.003 0.0191,0.003 0.0273,0.006 C 256.78238,233.70769 276.47498,250 300,250 c 27.60183,0 50,-22.39817 50,-50 0,-27.60183 -22.39817,-50 -50,-50 z m 0,2.0957 c 6.25706,0 12.23315,1.19803 17.71094,3.37696 -0.0258,2.44341 -0.0685,4.87743 -0.23633,7.36328 -5.97802,0.2269 -10.99874,1.66686 -15.68555,3.52929 -1.86301,-1.48588 -4.70286,-2.72968 -8.0625,-3.66601 -3.11495,-0.86814 -6.66831,-1.43945 -10.23828,-1.50977 l -0.21289,-6.0957 C 288.48167,153.1555 294.11603,152.0957 300,152.0957 Z m 19.81641,4.27344 c 10.52955,4.78652 19.01639,13.27133 23.80664,23.79883 l -0.39063,0.59961 c -3.43851,-1.79837 -8.0546,-3.05481 -11.67969,-3.9668 -4.39404,-7.01144 -8.32737,-11.03129 -12,-13.35351 0.17807,-2.41661 0.23441,-4.76075 0.26368,-7.07813 z m -37.48829,6.93164 c 3.73263,-0.0443 7.55959,0.52602 10.83008,1.4375 3.31739,0.92455 6.07514,2.24322 7.50977,3.44727 l 2.20312,15.37695 c -5.84823,4.48388 -12.04737,10.30554 -16.19531,14.99023 -5.10703,-1.61947 -10.25495,-3.06126 -15.54297,-3.89648 -1.69365,-5.02006 -3.53776,-12.44802 -3.74609,-18.36523 4.50608,-5.94368 9.48618,-10.27365 14.9414,-12.99024 z m -20.50585,12.84375 c 1.17702,-0.053 2.32447,-0.0198 3.44335,0.10156 0.19523,6.37365 2.1332,14.00339 3.9043,19.21094 -3.33742,4.15449 -5.03538,9.19604 -6.15234,14.55078 -3.93699,0.50349 -7.51304,0.48444 -9.86719,0.0391 -0.69059,-3.23955 -1.05469,-6.60041 -1.05469,-10.04687 0,-8.51455 2.21733,-16.50876 6.10742,-23.43555 1.23517,-0.22746 2.44212,-0.36688 3.61915,-0.41992 z m 69.14843,2.69727 c 3.86706,0.98922 8.82695,2.39776 11.91016,4.14843 1.98381,5.5939 4.05314,11.05639 4.49805,19.00391 -1.5968,5.16472 -5.11511,10.42065 -9.00391,14.32617 l -9.94922,-4.16211 c -0.6511,-7.38452 -2.32498,-14.755 -4.78125,-22.10742 z m -26.6582,6.2832 c 6.13279,1.39216 11.7775,3.41208 17.31445,5.57031 2.4359,7.28564 4.07847,14.55558 4.70313,21.8086 -3.9658,4.6474 -8.61384,8.7506 -13.83399,12.39453 -7.16251,-0.99764 -15.08189,-3.71034 -20.20507,-6.66992 l -4.23438,-18.04102 c 4.05902,-4.62342 10.3978,-10.59005 16.25586,-15.0625 z m 42.96875,22.62109 c -1.56672,9.64799 -6.01072,18.32718 -12.42578,25.12696 l -0.61914,-0.53125 c 2.68966,-4.50765 4.47576,-9.2558 5.35547,-14.2461 2.94968,-2.89549 5.69607,-6.49146 7.68945,-10.34961 z m -84.01367,4.36524 c 2.94333,6.69962 7.19773,10.45123 11.61523,13.83398 -0.0337,4.07103 0.94264,9.80354 3.01172,14.15235 -1.29333,0.0211 -2.7449,-0.0303 -4.35547,-0.15235 -9.63463,-6.39245 -16.81891,-16.17799 -19.85351,-27.65625 2.62241,0.36942 5.94444,0.2886 9.58203,-0.17773 z m 27.96484,7.94922 c 5.38643,3.11224 13.31972,5.8358 20.71289,6.90234 l 2.7793,10.51563 c -3.38817,3.22667 -9.87319,7.3452 -15.57031,8.68359 -7.19362,-1.03905 -13.32795,-2.85989 -18.84961,-6.01563 -2.03904,-3.7687 -3.23381,-9.71232 -3.30274,-13.71484 z m 41.55274,13.82422 0.58007,0.49804 c -8.41309,8.16525 -19.81661,13.26711 -32.41601,13.51172 5.83345,-1.66393 11.70366,-5.50978 15.1582,-8.80469 6.52122,-0.38804 12.08067,-2.12321 16.67774,-5.20507 z" /></svg>