<?xml version="1.0" encoding="UTF-8" standalone="no"?>
<svg
  width="100"
  height="100"
  viewBox="0 0 100 100"
  version="1.1"
  xmlns="http://www.w3.org/2000/svg">
  <g>
    <circle
      style="fill:#ffffff;stroke:#000000;stroke-width:2.09555"
      cx="50"
      cy="50"
      r="48.952229" />
    <path
      style="fill:#000000;stroke:none"
      d="m 19.993926,44.487227 c 6.062274,0.852222 11.933043,2.5343 17.759133,4.409987 l 4.827148,20.560075 -16.507653,7.389705 c -5.069507,-3.81253 -10.059058,-7.804963 -13.259755,-15.822317 1.197016,-6.159344 3.064506,-11.95627 7.181127,-16.53745 z" />
    <path
      style="fill:#000000;stroke:none"
      d="m 50.483257,16.897985 c 5.318826,-2.222638 11.001956,-3.983826 17.993614,-4.087543 4.079727,2.252833 8.465937,6.497798 13.442537,14.580307 L 72.897734,41.193717 C 66.576025,38.702323 60.151899,36.342606 53.053773,34.849461 Z" />
    <path
      style="fill:#000000;stroke:none"
      d="m 61.586639,75.603002 c 5.961963,-4.032555 11.129334,-8.700784 15.502113,-14.004687 l 12.693611,5.310017 c -0.845516,5.770726 -2.882919,11.223614 -6.112211,16.358666 -4.977395,3.625327 -11.146677,5.582011 -18.507849,5.87005 z" />
    <path
      style="fill:#000000;stroke:none"
      d="M 6.2313802,26.996163 C 12.073919,15.981432 21.069496,8.1458415 33.21811,3.4893906 l 0.325023,9.2367734 c -6.011919,2.696935 -11.461975,7.3042 -16.35017,13.821794 -3.37293,-0.693391 -7.026791,-0.543989 -10.9615828,0.448205 z" />
    <path
      style="fill:#000000;stroke:none"
      d="m 92.496459,31.899688 2.107956,-3.237809 c 3.728691,7.928085 5.302984,16.180366 4.722878,24.756842 l -1.900499,-0.407086 c -0.337639,-9.03443 -2.75464,-14.88866 -4.930335,-21.111947 z" />
    <path
      style="fill:#000000;stroke:none"
      d="m 30.023854,89.984799 c 5.632349,3.277693 11.900371,5.144984 19.280823,6.197819 l 0.695327,3.263003 c -11.467043,-0.333192 -21.60988,-3.816014 -29.545815,-9.798248 3.953615,0.457241 7.143504,0.569717 9.569665,0.337426 z" />
    <path
      style="fill:none;stroke:#000000;stroke-width:2.11667"
      d="m 31.478293,12.262628 c 8.228259,-0.298756 16.962351,2.397463 20.142733,5.35173" />
    <path
      style="fill:none;stroke:#000000;stroke-width:2.11667"
      d="m 16.309272,25.126676 c -0.01986,6.535971 2.134606,15.032639 4.021771,20.45618" />
    <path
      style="fill:none;stroke:#000000;stroke-width:2.11667"
      d="M 37.078825,49.697867 C 41.225552,44.935823 47.758537,38.778352 53.812286,34.175227" />
    <path
      style="fill:none;stroke:#000000;stroke-width:2.11667"
      d="M 13.408743,61.024677 C 8.6077955,61.663379 4.3233328,61.586947 1.7472433,60.795383" />
    <path
      style="fill:none;stroke:#000000;stroke-width:2.11667"
      d="m 25.946135,75.582805 c -0.113166,4.538187 1.277988,11.858757 4.025354,16.079107" />
    <path
      style="fill:none;stroke:#000000;stroke-width:2.11667"
      d="m 41.686292,69.099723 c 5.302507,3.081541 13.366221,5.845243 20.734668,6.860844" />
    <path
      style="fill:none;stroke:#000000;stroke-width:2.11667"
      d="M 47.397656,97.553289 C 54.272715,96.71449 62.419123,91.445841 66.115813,87.587592" />
    <path
      style="fill:none;stroke:#000000;stroke-width:2.11667"
      d="m 83.133802,82.790241 2.152568,1.847045" />
    <path
      style="fill:none;stroke:#000000;stroke-width:2.11667"
      d="m 87.842166,68.295197 c 4.613037,-4.208403 8.919915,-10.329665 10.683009,-16.43803" />
    <path
      style="fill:none;stroke:#000000;stroke-width:2.11667"
      d="m 72.585994,40.226228 c 2.52041,7.508896 4.213002,15.017792 4.827149,22.526688" />
    <path
      style="fill:none;stroke:#000000;stroke-width:2.11667"
      d="m 79.576531,27.400973 c 4.261342,1.057769 10.853459,2.707576 14.554895,5.109119" />
    <path
      style="fill:none;stroke:#000000;stroke-width:2.11667"
      d="m 68.47687,13.653234 c 0.248602,-3.204935 0.273554,-6.2980451 0.303268,-9.3935366" />
  </g>
</svg>