<?xml version="1.0" encoding="UTF-8" standalone="no"?>
<svg width="210" height="110" viewBox="0 0 210 110" version="1.1" xmlns="http://www.w3.org/2000/svg"><path style="fill:#ffffff" d="M 103.69335,1.0337347 C 91.799847,1.3124592 80.044974,5.6527768 70.855119,13.213455 64.908457,18.050712 60.034142,24.194596 56.634766,31.063032 38.027353,32.196647 19.419865,33.329027 0.8125,34.463422 1.4771772,47.123649 2.1445087,59.783736 2.8105469,72.443891 8.84238,71.998965 14.874357,71.555986 20.90625,71.11186 c 0.312937,8.386076 0.627771,16.772081 0.939453,25.158198 15.024947,-1.00667 30.049446,-2.02002 45.074219,-3.029292 9.11683,9.152494 21.629016,14.809974 34.520748,15.625154 12.98987,0.90328 26.24159,-3.12658 36.52973,-11.107942 3.72311,-2.866466 7.06801,-6.223002 9.91827,-9.958618 20.43295,-1.373592 40.86584,-2.748044 61.29884,-4.121094 -0.56715,-12.571669 -1.13776,-25.143182 -1.70509,-37.714844 -2.84382,0.185099 -5.6875,0.372376 -8.53125,0.558594 -0.19208,-2.60091 -0.38448,-5.201796 -0.57616,-7.802734 -13.68872,0.965382 -27.37763,1.928197 -41.06641,2.892578 C 154.41862,30.22087 147.67781,19.854519 138.42272,12.609883 129.20059,5.2888078 117.51679,1.1687403 105.74673,1.0277146 c -0.6841,-0.038023 -1.36886,-0.00874 -2.05338,0.00602 z" /><path style="fill:#000000" d="M 105 5 C 84.542179 5 66.942859 17.304494 59.203125 34.912109 L 5.015625 38.212891 L 6.5917969 68.154297 L 24.746094 66.818359 L 25.689453 92.005859 L 68.515625 89.126953 C 77.626735 98.890383 90.594834 105 105 105 C 121.82351 105 136.71351 96.680054 145.77734 83.931641 C 145.77767 83.931187 145.77702 83.930141 145.77734 83.929688 L 205.01562 79.947266 L 203.66992 50.222656 L 154.97461 53.408203 C 154.13363 26.541794 132.06952 5 105 5 z M 105 7.0957031 C 111.25706 7.0957031 117.23315 8.293729 122.71094 10.472656 C 122.68514 12.916074 122.64244 15.350094 122.47461 17.835938 C 116.49659 18.062841 111.47587 19.502798 106.78906 21.365234 C 104.92605 19.879348 102.0862 18.635546 98.726562 17.699219 C 95.611609 16.831083 92.058248 16.259765 88.488281 16.189453 L 88.275391 10.09375 C 93.48167 8.1554979 99.116027 7.0957031 105 7.0957031 z M 124.81641 11.369141 C 135.34596 16.155664 143.8328 24.640468 148.62305 35.167969 L 148.23242 35.767578 C 144.79391 33.969215 140.17782 32.712768 136.55273 31.800781 C 132.15869 24.789342 128.22536 20.769495 124.55273 18.447266 C 124.7308 16.030656 124.78714 13.686519 124.81641 11.369141 z M 87.328125 18.300781 C 91.060748 18.256501 94.887708 18.826797 98.158203 19.738281 C 101.47559 20.662833 104.23334 21.981504 105.66797 23.185547 L 107.87109 38.5625 C 104.75595 40.950898 101.54107 43.718664 98.589844 46.492188 L 97.775391 32.5625 L 72.589844 34.095703 C 72.487935 33.134599 72.418564 32.195516 72.386719 31.291016 C 76.892796 25.347337 81.872904 21.017372 87.328125 18.300781 z M 66.822266 31.144531 C 67.999291 31.091491 69.146739 31.124721 70.265625 31.246094 C 70.29529 32.214585 70.365306 33.212971 70.46875 34.226562 L 61.560547 34.767578 C 62.06913 33.676601 62.61663 32.608779 63.203125 31.564453 C 64.43829 31.336994 65.64524 31.197573 66.822266 31.144531 z M 135.9707 33.841797 C 139.83776 34.831022 144.79765 36.239562 147.88086 37.990234 C 149.56908 42.750636 151.31986 47.415088 152.07812 53.597656 L 131.45312 54.945312 C 130.68828 51.643669 129.74523 48.345533 128.64453 45.050781 L 135.9707 33.841797 z M 109.3125 40.125 C 115.44529 41.517161 121.09 43.537077 126.62695 45.695312 C 127.67447 48.828367 128.57431 51.958786 129.31055 55.085938 L 99.207031 57.054688 L 98.751953 49.265625 C 102.03948 46.090833 105.76428 42.833958 109.3125 40.125 z M 143.05469 84.113281 C 142.05285 85.42124 140.9843 86.676516 139.85547 87.873047 L 139.23633 87.341797 C 139.84249 86.325922 140.40362 85.298138 140.91797 84.257812 L 143.05469 84.113281 z M 117.95898 85.800781 L 119.72461 92.478516 C 116.33644 95.705192 109.85142 99.823719 104.1543 101.16211 C 96.96068 100.12306 90.826345 98.30222 85.304688 95.146484 C 84.255303 93.206929 83.42901 90.690762 82.865234 88.160156 L 117.95898 85.800781 z M 80.679688 88.308594 C 81.178204 90.666625 81.914112 93.037004 82.894531 95.097656 C 81.601197 95.118796 80.149626 95.067376 78.539062 94.945312 C 75.893352 93.18992 73.432378 91.177224 71.191406 88.945312 L 80.679688 88.308594 z M 137.78516 88.884766 L 138.36523 89.382812 C 129.95214 97.548057 118.54862 102.64992 105.94922 102.89453 C 111.78267 101.2306 117.65288 97.384755 121.10742 94.089844 C 127.62864 93.701803 133.18809 91.966627 137.78516 88.884766 z " /><path style="fill:#fde70e" d="m 98.779785,49.738178 95.900855,-6.748769 0.57473,7.782969 -96.047805,6.282346 z" /><path d="m 36.38861,88.718224 7.239592,-18.932316 h 2.265628 l 7.239593,18.932316 H 49.292272 L 44.761016,75.78852 40.229761,88.718224 Z m 3.476567,-3.033858 v -3.437505 h 9.96095 v 3.437505 z m 15.611998,3.020837 V 69.785908 h 4.361985 l 7.044279,14.505227 -0.3125,0.338542 V 69.785908 h 3.411463 v 18.919295 h -4.388027 l -7.018238,-14.283872 0.3125,-0.338543 v 14.622415 z m 26.979202,-6.158862 3.606775,-12.760433 h 4.700527 v 18.932316 h -3.242192 v -14.70054 l 0.130209,0.833335 -3.619796,11.757827 h -3.151046 l -3.619796,-11.49741 0.130208,-1.093752 v 14.70054 H 74.149075 V 69.785908 h 4.700526 z m 12.473971,6.171883 V 69.785908 h 3.567712 v 18.932316 z m 1.289064,0 v -3.437505 h 11.393248 v 3.437505 z m 0,-7.682302 v -3.437504 h 9.960948 v 3.437504 z m 0,-7.81251 v -3.437504 h 11.393248 v 3.437504 z M 110.86787,88.718224 V 69.785908 h 3.56771 v 18.932316 z m 1.58854,0 v -3.437505 h 11.09377 v 3.437505 z m 15.49481,0 v -3.437505 h 4.54428 q 1.75782,0 2.72136,-0.846355 0.96354,-0.859376 0.96354,-2.395836 v -5.572924 q 0,-1.549481 -0.96354,-2.395836 -0.96354,-0.846356 -2.72136,-0.846356 h -4.54428 v -3.437504 h 4.46616 q 3.56771,0 5.50781,1.783856 1.95313,1.770836 1.95313,5.000007 v 5.36459 q 0,2.018232 -0.83333,3.554692 -0.83334,1.523439 -2.50001,2.382815 -1.65364,0.846356 -4.14063,0.846356 z m -1.79687,0 V 69.785908 h 3.56771 v 18.932316 z m 17.23961,0 V 69.785908 h 3.56771 v 18.932316 z m 1.28906,0 v -3.437505 h 11.39324 v 3.437505 z m 0,-7.682302 v -3.437504 h 9.96095 v 3.437504 z m 0,-7.81251 v -3.437504 h 11.39324 v 3.437504 z m 14.64845,15.481791 V 69.785908 h 4.36199 l 7.04427,14.505227 -0.3125,0.338542 V 69.785908 h 3.41147 v 18.919295 h -4.38803 l -7.01824,-14.283872 0.3125,-0.338543 v 14.622415 z m 18.41148,-5.625007 V 69.785908 h 3.56771 v 13.294288 z m 0,5.638028 v -3.567713 h 3.56771 v 3.567713 z" style="fill:#ffffff" transform="rotate(-3.7627506)" /><path d="m 17.449023,62.06258 q -1.731773,0 -3.098962,-0.677084 -1.367189,-0.677084 -2.122398,-1.914065 l 2.91667,-2.122398 q 0.468751,0.598959 1.119793,0.92448 0.664063,0.325521 1.38021,0.325521 1.028647,0 1.588544,-0.716146 0.559896,-0.729168 0.559896,-2.044274 V 42.934952 h 3.697922 v 12.916683 q 0,2.955733 -1.588544,4.583339 -1.575523,1.627606 -4.453131,1.627606 z M 27.65737,61.867268 V 42.934952 h 3.567713 v 18.932316 z m 1.289064,0 v -3.437505 h 11.393243 v 3.437505 z m 0,-7.682302 v -3.437504 h 9.96095 v 3.437504 z m 0,-7.81251 v -3.437504 h 11.393243 v 3.437504 z M 46.667811,61.867268 V 44.484433 h 3.567713 V 61.867268 Z M 41.511555,46.372456 v -3.437504 h 13.880226 v 3.437504 z m 27.343783,-3.437504 v 3.203129 L 61.06887,58.429763 h 8.046885 v 3.437505 H 56.824073 V 58.664139 L 64.610541,46.372456 H 57.058448 V 42.934952 Z M 75.31368,61.867268 V 44.484433 h 3.567712 V 61.867268 Z M 70.157423,46.372456 v -3.437504 h 13.880226 v 3.437504 z" style="fill:#fde70e" transform="rotate(-3.7627506)" /></svg>