<?xml version="1.0" encoding="UTF-8" standalone="no"?>
<svg width="200" height="100" viewBox="0 0 200 100" version="1.1" xmlns="http://www.w3.org/2000/svg"><g id="layer1"><circle style="fill:#ffffff;stroke:#000000;stroke-width:2.09555" cx="100" cy="50" r="48.952229" /><path style="fill:#000000;stroke:none" d="m 69.993924,44.487228 c 6.062274,0.852222 11.933043,2.5343 17.759133,4.409987 l 4.827151,20.560075 -16.507656,7.389705 c -5.069507,-3.81253 -10.059058,-7.804963 -13.259755,-15.822317 1.197016,-6.159344 3.064506,-11.95627 7.181127,-16.53745 z" /><path style="fill:#000000;stroke:none" d="m 100.48326,16.897986 c 5.31882,-2.222638 11.00195,-3.983826 17.99361,-4.087543 4.07973,2.252833 8.46594,6.497798 13.44254,14.580307 l -9.02168,13.802968 c -6.3217,-2.491394 -12.74583,-4.851111 -19.84396,-6.344256 z" /><path style="fill:#000000;stroke:none" d="m 111.58664,75.603003 c 5.96196,-4.032555 11.12933,-8.700784 15.50211,-14.004687 l 12.69361,5.310017 c -0.84551,5.770726 -2.88292,11.223614 -6.11221,16.358666 -4.97739,3.625327 -11.14667,5.582011 -18.50785,5.87005 z" /><path style="fill:#000000;stroke:none" d="M 56.231378,26.996164 C 62.073917,15.981433 71.069494,8.1458432 83.218108,3.4893922 l 0.325023,9.2367728 c -6.011919,2.696935 -11.461975,7.3042 -16.35017,13.821794 -3.37293,-0.693391 -7.026791,-0.543989 -10.961583,0.448205 z" /><path style="fill:#000000;stroke:none" d="m 142.49646,31.899689 2.10796,-3.237809 c 3.72869,7.928085 5.30298,16.180366 4.72287,24.756842 l -1.9005,-0.407086 c -0.33764,-9.03443 -2.75464,-14.88866 -4.93033,-21.111947 z" /><path style="fill:#000000;stroke:none" d="m 80.023852,89.9848 c 5.632349,3.277693 11.900376,5.144984 19.280826,6.197819 l 0.69532,3.263003 C 88.532959,99.11243 78.390122,95.629608 70.454187,89.647374 c 3.953615,0.457241 7.143504,0.569717 9.569665,0.337426 z" /><path style="fill:none;stroke:#000000;stroke-width:2.11667" d="m 81.478291,12.262629 c 8.228259,-0.298756 16.962347,2.397463 20.142739,5.35173" /><path style="fill:none;stroke:#000000;stroke-width:2.11667" d="m 66.30927,25.126677 c -0.01986,6.535971 2.134606,15.032639 4.021771,20.45618" /><path style="fill:none;stroke:#000000;stroke-width:2.11667" d="M 87.078823,49.697868 C 91.225548,44.935824 97.758538,38.778353 103.81229,34.175228" /><path style="fill:none;stroke:#000000;stroke-width:2.11667" d="m 63.408741,61.024678 c -4.800948,0.638702 -9.08541,0.56227 -11.6615,-0.229294" /><path style="fill:none;stroke:#000000;stroke-width:2.11667" d="m 75.946133,75.582806 c -0.113166,4.538187 1.277988,11.858757 4.025354,16.079107" /><path style="fill:none;stroke:#000000;stroke-width:2.11667" d="m 91.686288,69.099724 c 5.30251,3.081541 13.366222,5.845243 20.734672,6.860844" /><path style="fill:none;stroke:#000000;stroke-width:2.11667" d="m 97.397658,97.55329 c 6.875062,-0.838799 15.021462,-6.107448 18.718152,-9.965697" /><path style="fill:none;stroke:#000000;stroke-width:2.11667" d="m 133.1338,82.790242 2.15257,1.847045" /><path style="fill:none;stroke:#000000;stroke-width:2.11667" d="m 137.84217,68.295198 c 4.61303,-4.208403 8.91991,-10.329665 10.683,-16.43803" /><path style="fill:none;stroke:#000000;stroke-width:2.11667" d="m 122.58599,40.226229 c 2.52041,7.508896 4.21301,15.017792 4.82715,22.526688" /><path style="fill:none;stroke:#000000;stroke-width:2.11667" d="m 129.57653,27.400974 c 4.26134,1.057769 10.85346,2.707576 14.5549,5.109119" /><path style="fill:none;stroke:#000000;stroke-width:2.11667" d="m 118.47687,13.653235 c 0.2486,-3.204935 0.27355,-6.2980448 0.30327,-9.3935368" /><path style="fill:#000000;stroke:none" d="M 200,74.943262 20.673207,87.000684 19.730647,61.813965 1.5766711,63.149911 0,33.208145 92.759939,27.557892 94.191938,52.050282 198.65405,45.217569" /><path style="fill:#fde70e;stroke:none" d="m 93.764159,44.733736 95.900861,-6.748769 0.57473,7.782969 -96.047812,6.282346 z" /><path d="m 11.699272,58.226109 q -1.7317733,0 -3.0989625,-0.677084 Q 7.2331203,56.87194 6.477911,55.63496 l 2.9166704,-2.122399 q 0.4687505,0.598959 1.1197926,0.924481 0.664064,0.325521 1.380211,0.325521 1.028647,0 1.588543,-0.716147 0.559897,-0.729168 0.559897,-2.044273 V 39.09848 h 3.697921 v 12.916683 q 0,2.955733 -1.588544,4.58334 -1.575522,1.627606 -4.45313,1.627606 z M 21.907618,58.030796 V 39.09848 h 3.567713 v 18.932316 z m 1.289064,0 v -3.437504 h 11.393244 v 3.437504 z m 0,-7.682301 V 46.91099 h 9.96095 v 3.437505 z m 0,-7.81251 V 39.09848 h 11.393244 v 3.437505 z M 40.91806,58.030796 V 40.647962 h 3.567712 V 58.030796 Z M 35.761803,42.535985 V 39.09848 h 13.880226 v 3.437505 z M 63.105587,39.09848 v 3.20313 l -7.786469,12.291682 h 8.046886 v 3.437504 H 51.074321 V 54.827667 L 58.860789,42.535985 H 51.308697 V 39.09848 Z m 6.458341,18.932316 V 40.647962 h 3.567713 V 58.030796 Z M 64.407671,42.535985 V 39.09848 h 13.880226 v 3.437505 z" style="fill:#fde70e;stroke:none" transform="rotate(-4.1483423)" /><path d="m 31.216111,83.49234 7.239593,-18.932316 h 2.265628 L 47.960924,83.49234 H 44.119773 L 39.588518,70.562636 35.057262,83.49234 Z m 3.476567,-3.033858 v -3.437504 h 9.96095 v 3.437504 z m 15.611998,3.020837 V 64.560024 h 4.361985 l 7.04428,14.505227 -0.312501,0.338542 V 64.560024 h 3.411463 V 83.479319 H 60.421876 L 53.403638,69.195447 53.716139,68.856905 V 83.479319 Z M 77.283878,77.320457 80.890653,64.560024 H 85.59118 V 83.49234 H 82.348989 V 68.791801 l 0.130208,0.833334 -3.619796,11.757827 h -3.151046 l -3.619796,-11.49741 0.130209,-1.093751 V 83.49234 H 68.976576 V 64.560024 h 4.700527 z M 89.757849,83.49234 V 64.560024 h 3.567713 V 83.49234 Z m 1.289064,0 v -3.437504 h 11.393247 v 3.437504 z m 0,-7.682301 v -3.437505 h 9.960947 v 3.437505 z m 0,-7.81251 v -3.437505 h 11.393247 v 3.437505 z M 105.69537,83.49234 V 64.560024 h 3.56771 V 83.49234 Z m 1.58855,0 v -3.437504 h 11.09376 v 3.437504 z m 15.49481,0 v -3.437504 h 4.54427 q 1.75782,0 2.72136,-0.846355 0.96354,-0.859377 0.96354,-2.395837 V 71.23972 q 0,-1.549481 -0.96354,-2.395836 -0.96354,-0.846355 -2.72136,-0.846355 h -4.54427 v -3.437505 h 4.46615 q 3.56771,0 5.50782,1.783857 1.95312,1.770835 1.95312,5.000006 v 5.36459 q 0,2.018232 -0.83333,3.554692 -0.83334,1.52344 -2.5,2.382816 -1.65365,0.846355 -4.14063,0.846355 z m -1.79688,0 V 64.560024 h 3.56771 V 83.49234 Z m 17.23961,0 V 64.560024 h 3.56771 V 83.49234 Z m 1.28906,0 v -3.437504 h 11.39324 v 3.437504 z m 0,-7.682301 v -3.437505 h 9.96095 v 3.437505 z m 0,-7.81251 v -3.437505 h 11.39324 v 3.437505 z m 14.64845,15.48179 V 64.560024 h 4.36199 l 7.04428,14.505227 -0.3125,0.338542 V 64.560024 h 3.41146 v 18.919295 h -4.38803 l -7.01824,-14.283872 0.3125,-0.338542 v 14.622414 z m 18.41148,-5.625007 V 64.560024 h 3.56772 v 13.294288 z m 0,5.638028 v -3.567713 h 3.56772 v 3.567713 z" style="fill:#ffffff;stroke:none" transform="rotate(-4.1483423)" /></g></svg>