<?xml version="1.0" encoding="UTF-8" standalone="no"?>
<svg
  width="200"
  height="100"
  viewBox="0 0 100 100"
  version="1.1"
  xmlns="http://www.w3.org/2000/svg">
  <g id="fussball">
    <circle
      style="fill:#ffffff;stroke:#000000;stroke-width:2.09555"
      cx="50"
      cy="50"
      r="48.952229" />
    <path
      style="fill:#000000;stroke:none"
      d="m 19.993926,44.487227 c 6.062274,0.852222 11.933043,2.5343 17.759133,4.409987 l 4.827148,20.560075 -16.507653,7.389705 c -5.069507,-3.81253 -10.059058,-7.804963 -13.259755,-15.822317 1.197016,-6.159344 3.064506,-11.95627 7.181127,-16.53745 z" />
    <path
      style="fill:#000000;stroke:none"
      d="m 50.483257,16.897985 c 5.318826,-2.222638 11.001956,-3.983826 17.993614,-4.087543 4.079727,2.252833 8.465937,6.497798 13.442537,14.580307 L 72.897734,41.193717 C 66.576025,38.702323 60.151899,36.342606 53.053773,34.849461 Z" />
    <path
      style="fill:#000000;stroke:none"
      d="m 61.586639,75.603002 c 5.961963,-4.032555 11.129334,-8.700784 15.502113,-14.004687 l 12.693611,5.310017 c -0.845516,5.770726 -2.882919,11.223614 -6.112211,16.358666 -4.977395,3.625327 -11.146677,5.582011 -18.507849,5.87005 z" />
    <path
      style="fill:#000000;stroke:none"
      d="M 6.2313802,26.996163 C 12.073919,15.981432 21.069496,8.1458415 33.21811,3.4893906 l 0.325023,9.2367734 c -6.011919,2.696935 -11.461975,7.3042 -16.35017,13.821794 -3.37293,-0.693391 -7.026791,-0.543989 -10.9615828,0.448205 z" />
    <path
      style="fill:#000000;stroke:none"
      d="m 92.496459,31.899688 2.107956,-3.237809 c 3.728691,7.928085 5.302984,16.180366 4.722878,24.756842 l -1.900499,-0.407086 c -0.337639,-9.03443 -2.75464,-14.88866 -4.930335,-21.111947 z" />
    <path
      style="fill:#000000;stroke:none"
      d="m 30.023854,89.984799 c 5.632349,3.277693 11.900371,5.144984 19.280823,6.197819 l 0.695327,3.263003 c -11.467043,-0.333192 -21.60988,-3.816014 -29.545815,-9.798248 3.953615,0.457241 7.143504,0.569717 9.569665,0.337426 z" />
    <path
      style="fill:none;stroke:#000000;stroke-width:2.11667"
      d="m 31.478293,12.262628 c 8.228259,-0.298756 16.962351,2.397463 20.142733,5.35173" />
    <path
      style="fill:none;stroke:#000000;stroke-width:2.11667"
      d="m 16.309272,25.126676 c -0.01986,6.535971 2.134606,15.032639 4.021771,20.45618" />
    <path
      style="fill:none;stroke:#000000;stroke-width:2.11667"
      d="M 37.078825,49.697867 C 41.225552,44.935823 47.758537,38.778352 53.812286,34.175227" />
    <path
      style="fill:none;stroke:#000000;stroke-width:2.11667"
      d="M 13.408743,61.024677 C 8.6077955,61.663379 4.3233328,61.586947 1.7472433,60.795383" />
    <path
      style="fill:none;stroke:#000000;stroke-width:2.11667"
      d="m 25.946135,75.582805 c -0.113166,4.538187 1.277988,11.858757 4.025354,16.079107" />
    <path
      style="fill:none;stroke:#000000;stroke-width:2.11667"
      d="m 41.686292,69.099723 c 5.302507,3.081541 13.366221,5.845243 20.734668,6.860844" />
    <path
      style="fill:none;stroke:#000000;stroke-width:2.11667"
      d="M 47.397656,97.553289 C 54.272715,96.71449 62.419123,91.445841 66.115813,87.587592" />
    <path
      style="fill:none;stroke:#000000;stroke-width:2.11667"
      d="m 83.133802,82.790241 2.152568,1.847045" />
    <path
      style="fill:none;stroke:#000000;stroke-width:2.11667"
      d="m 87.842166,68.295197 c 4.613037,-4.208403 8.919915,-10.329665 10.683009,-16.43803" />
    <path
      style="fill:none;stroke:#000000;stroke-width:2.116671"
      d="m 72.585994,40.226228 c 2.52041,7.508896 4.213002,15.017792 4.827149,22.526688" />
    <path
      style="fill:none;stroke:#000000;stroke-width:2.116671"
      d="m 79.576531,27.400973 c 4.261342,1.057769 10.853459,2.707576 14.554895,5.109119" />
    <path
      style="fill:none;stroke:#000000;stroke-width:2.11667"
      d="m 68.47687,13.653234 c 0.248602,-3.204935 0.273554,-6.2980451 0.303268,-9.3935366" />
  </g>
  <path
    style="fill:#000000;stroke:none"
    d="M 149.92022,75.649882 -29.263508,87.697685 -30.205316,62.53106 -48.344809,63.86594 -49.920222,33.94806 42.765715,28.302315 44.196571,52.775165 148.57535,45.947903" />
  <path
    style="fill:#f9e500;stroke:none"
    d="m 43.769134,45.464457 95.824346,-6.743386 0.57428,7.776761 -95.971189,6.277333 z" />
  <path
    style="fill:#f9e500;stroke:none"
    d="m -38.473965,56.846795 -1.243082,-18.876313 3.55716,-0.234253 1.243082,18.876312 z m 0.804934,-7.576299 -0.225704,-3.427337 9.671838,-0.63693 0.225704,3.427337 z m -0.524078,-7.958171 -0.225704,-3.427337 11.099895,-0.730973 0.225704,3.427337 z m 25.177501,13.857933 -1.243082,-18.876312 3.557159,-0.234254 1.243082,18.876313 z m -10.333938,0.680532 -1.243082,-18.876313 3.557159,-0.234253 1.243082,18.876313 z m 1.145197,-7.755169 -0.225704,-3.427337 10.996037,-0.724134 0.225704,3.427337 z m 16.8993939,6.553821 -1.2422271,-18.863331 4.3490828,-0.286404 7.9758456,13.999798 -0.2893394,0.358049 -0.9746311,-14.799863 3.4013729,-0.223994 1.242227,18.863331 -4.3750467,0.288114 -7.9353476,-13.780807 0.2893394,-0.358049 0.9600971,14.579162 z m 22.8643881,-7.803373 2.779796,-12.830537 2.856112,-0.188087 4.438379,12.355192 1.598408,-12.752739 3.661016,-0.241092 -3.105997,19.162717 -3.349445,0.220574 -4.21806,-12.969475 -2.63661,13.420883 -3.349441,0.220575 -5.592165,-18.589908 3.661016,-0.241093 z" />
  <path
    style="fill:#ffffff;stroke:none"
    d="m -8.75392,70.924257 6.5430949,-0.43089 0.2428026,3.68698 q 0.1402101,2.129103 -0.6114647,3.782356 -0.7525335,1.640271 -2.2392928,2.624808 -1.4746364,0.970698 -3.5518085,1.107488 -2.0901555,0.137645 -3.7148795,-0.576794 -1.612596,-0.728275 -2.58073,-2.163962 -0.956007,-1.449527 -1.087668,-3.448806 l -0.366769,-5.569422 q -0.14021,-2.129102 0.612322,-3.76937 0.752531,-1.640271 2.227165,-2.610971 1.486762,-0.984538 3.5639353,-1.121329 1.713668,-0.112852 3.1619287,0.495864 1.4612385,0.607856 2.5048594,1.803875 1.0436248,1.196023 1.4923056,2.861499 v 0 l -3.842771,0.253062 v 0 q -0.346304,-0.902937 -1.2356316,-1.339841 -0.8771953,-0.45074 -1.8378882,-0.387475 -1.4410392,0.0949 -2.2501552,1.073925 -0.809115,0.979027 -0.709087,2.497958 l 0.366769,5.569422 q 0.08806,1.33718 1.037701,2.096079 0.948787,0.745914 2.4157909,0.649306 1.4410392,-0.0949 2.253574,-1.021997 0.8116823,-0.940078 0.7082346,-2.510941 l -0.020518,-0.311567 -2.8561149,0.188087 z M 2.9044053,73.129316 2.6787013,69.701979 9.2477642,69.26938 q 0.8308688,-0.05472 1.2840158,-0.697375 0.46613,-0.64351 0.413281,-1.644007 v 0 Q 10.879231,65.92836 10.332737,65.351532 9.7992253,64.773852 8.955375,64.829423 l -6.5690629,0.4326 -0.2257041,-3.427337 6.8546737,-0.451408 q 1.5708633,-0.103448 2.7854403,0.520652 1.227556,0.623246 1.960457,1.852769 0.732901,1.229524 0.844898,2.930206 v 0 q 0.111997,1.700687 -0.466318,3.016559 -0.565333,1.315014 -1.687573,2.093007 -1.122244,0.777989 -2.693107,0.881437 z M 1.989473,80.817169 0.74553607,61.927874 4.3026926,61.693621 5.5466295,80.582916 Z m 9.970432,-0.656594 -5.1213776,-7.877078 3.7644976,-0.847683 5.667013,8.440922 z m 13.475504,-0.691823 q -3.284532,0.216299 -5.20962,-1.49537 -1.912966,-1.72551 -2.13354,-5.074952 l -0.793384,-12.047607 3.55716,-0.234253 0.799369,12.138481 q 0.106867,1.62279 1.035676,2.461291 0.928805,0.838502 2.51265,0.734199 1.596827,-0.105158 2.407654,-1.058221 0.823806,-0.953917 0.716938,-2.576708 l -0.799368,-12.138481 3.55716,-0.234253 0.793384,12.047606 q 0.220575,3.349442 -1.46257,5.31177 -1.683996,1.949343 -4.981509,2.166498 z m -0.409934,-20.678356 -0.234254,-3.557172 3.55716,-0.234253 0.234253,3.557156 z m -5.45258,0.359074 -0.234254,-3.557171 3.55716,-0.234254 0.234253,3.557157 z m 24.268833,12.731261 2.758266,-12.959506 4.686621,-0.308633 1.243082,18.876313 -3.2326,0.212879 -0.965227,-14.657068 0.184536,0.822319 -2.837078,11.96072 -3.141726,0.206895 -4.364,-11.225726 0.058,-1.099065 0.965226,14.657054 -3.232599,0.21288 -1.243082,-18.876313 4.686621,-0.308633 z m 13.98292,-2.09431 -0.225704,-3.427337 6.036783,-0.397547 q 0.960692,-0.06327 1.515989,-0.738728 0.554439,-0.688444 0.485189,-1.740013 v 0 q -0.07096,-1.077533 -0.710037,-1.674338 -0.626951,-0.610645 -1.600629,-0.546524 l -6.036783,0.397547 -0.225704,-3.427337 5.94591,-0.391562 q 1.79156,-0.117982 3.163635,0.521823 1.384201,0.625972 2.20969,1.875475 0.825485,1.249499 0.940902,3.002113 v 0 q 0.114562,1.739636 -0.539935,3.086598 -0.654501,1.346966 -1.94466,2.149052 -1.290158,0.802089 -3.068736,0.919216 z M 56.684043,77.215324 55.440961,58.339011 58.998118,58.104758 60.2412,76.981071 Z M 75.16112,57.040359 76.404202,75.916671 72.717222,76.159474 71.47414,57.283161 Z m 11.602988,18.19407 -0.21117,-3.206635 5.917342,-8.943026 q 0.403784,-0.600293 0.598136,-1.212867 0.206494,-0.626416 0.172297,-1.14571 l -0.0017,-0.026 q -0.05044,-0.765959 -0.571125,-1.148906 -0.520688,-0.382946 -1.429452,-0.3231 -0.869818,0.05728 -1.389585,0.67825 -0.507641,0.607129 -0.554377,1.679375 l 8.44e-4,0.01281 -3.648034,0.240238 -8.44e-4,-0.01281 q 0.0048,-2.699311 1.439233,-4.28018 1.447432,-1.581727 3.901095,-1.74331 2.661378,-0.175263 4.200039,1.014236 1.551643,1.188644 1.706386,3.538444 l 8.44e-4,0.01281 q 0.08464,1.285249 -0.285961,2.587442 -0.358469,1.288353 -1.095833,2.366964 l -4.261243,6.174083 6.452222,-0.424905 0.225704,3.427337 z m 19.681062,-1.100485 q -2.81716,0.185522 -4.32714,-1.162325 -1.51083,-1.360833 -1.67326,-3.827478 L 99.879651,60.56282 q -0.165004,-2.505591 1.169009,-4.027692 1.33402,-1.522101 4.12522,-1.705913 2.80418,-0.184667 4.3133,1.150202 1.52124,1.321033 1.6871,3.839606 l 0.56512,8.58132 q 0.165,2.505591 -1.16901,4.027692 -1.33402,1.522097 -4.12522,1.705909 z m -0.2257,-3.427333 q 1.11648,-0.07353 1.54724,-0.858134 0.44289,-0.798446 0.35568,-2.122645 l -0.44542,-6.763796 q -0.0881,-1.33718 -0.63097,-2.057665 -0.52994,-0.721344 -1.64642,-0.647819 -1.1035,0.07267 -1.54724,0.858134 -0.44374,0.785461 -0.35568,2.122641 l 0.44542,6.763796 q 0.0872,1.324198 0.63098,2.057669 0.54291,0.720489 1.64641,0.647819 z m 8.94999,2.657226 -0.21117,-3.206636 5.91734,-8.943025 q 0.40378,-0.600294 0.59814,-1.212868 0.20649,-0.626416 0.17229,-1.14571 l -0.002,-0.026 q -0.0504,-0.765959 -0.57113,-1.148905 -0.52069,-0.382947 -1.42945,-0.323101 -0.86981,0.05728 -1.38958,0.678251 -0.50764,0.607129 -0.55438,1.679374 l 8.5e-4,0.01281 -3.64805,0.240239 -8.5e-4,-0.01281 q 0.005,-2.699311 1.43924,-4.280179 1.44743,-1.581728 3.90109,-1.743311 2.66138,-0.175263 4.20004,1.014236 1.55164,1.188644 1.70639,3.538444 l 8.4e-4,0.01281 q 0.0846,1.285248 -0.28596,2.587441 -0.35847,1.288353 -1.09583,2.366965 l -4.26125,6.174082 6.45223,-0.424905 0.2257,3.427337 z m 18.38283,-1.014992 q -2.62243,0.172698 -4.17477,-1.224516 -1.53936,-1.398069 -1.71804,-4.111376 l -8.4e-4,-0.01281 q -0.0804,-1.220339 0.18125,-2.593585 0.26077,-1.386228 0.78543,-2.724643 l 3.2946,-8.379148 4.02452,-0.265031 -3.92398,9.711421 -0.92656,-0.408375 q 0.59044,-1.329705 2.31709,-1.443412 2.3498,-0.154744 3.73252,1.240602 1.38186,1.382365 1.55883,4.069707 l 8.4e-4,0.01281 q 0.1804,2.739274 -1.1736,4.353959 -1.34186,1.600848 -3.97728,1.7744 z m -0.2257,-3.427333 q 0.96069,-0.06327 1.43109,-0.641865 0.46955,-0.591587 0.40287,-1.604206 l -8.5e-4,-0.01281 q -0.0761,-1.155428 -0.62429,-1.758221 -0.5482,-0.602792 -1.5089,-0.539527 -0.93472,0.06156 -1.41127,0.74487 -0.46442,0.669478 -0.38833,1.824907 l 8.4e-4,0.01281 q 0.0667,1.012619 0.60891,1.524538 0.5552,0.51106 1.48993,0.449504 z" />
</svg>