<?xml version="1.0" encoding="UTF-8" standalone="no"?>
<svg width="210" height="110" viewBox="0 0 210 110" version="1.1" xmlns="http://www.w3.org/2000/svg"><path style="fill:#ffffff" d="M 103.69335,1.0337347 C 91.799847,1.3124592 80.044974,5.6527768 70.855119,13.213455 64.908457,18.050712 60.034142,24.194596 56.634766,31.063032 38.027353,32.196647 19.419865,33.329027 0.8125,34.463422 1.4771772,47.123649 2.1445087,59.783736 2.8105469,72.443891 8.84238,71.998965 14.874357,71.555986 20.90625,71.11186 c 0.312937,8.386076 0.627771,16.772081 0.939453,25.158198 15.024947,-1.00667 30.049446,-2.02002 45.074219,-3.029292 9.11683,9.152494 21.629016,14.809974 34.520748,15.625154 12.98987,0.90328 26.24159,-3.12658 36.52973,-11.107942 3.72311,-2.866466 7.06801,-6.223002 9.91827,-9.958618 20.43295,-1.373592 40.86584,-2.748044 61.29884,-4.121094 -0.56715,-12.571669 -1.13776,-25.143182 -1.70509,-37.714844 -2.84382,0.185099 -5.6875,0.372376 -8.53125,0.558594 -0.19208,-2.60091 -0.38448,-5.201796 -0.57616,-7.802734 -13.68872,0.965382 -27.37763,1.928197 -41.06641,2.892578 C 154.41862,30.22087 147.67781,19.854519 138.42272,12.609883 129.20059,5.2888078 117.51679,1.1687403 105.74673,1.0277146 c -0.6841,-0.038023 -1.36886,-0.00874 -2.05338,0.00602 z" /><path style="fill:#000000" d="M 105 5 C 84.542179 5 66.942859 17.304494 59.203125 34.912109 L 5.015625 38.212891 L 6.5917969 68.154297 L 24.746094 66.818359 L 25.689453 92.005859 L 68.515625 89.126953 C 77.626735 98.890383 90.594834 105 105 105 C 121.82351 105 136.71351 96.680054 145.77734 83.931641 C 145.77767 83.931187 145.77702 83.930141 145.77734 83.929688 L 205.01562 79.947266 L 203.66992 50.222656 L 154.97461 53.408203 C 154.13363 26.541794 132.06952 5 105 5 z M 105 7.0957031 C 111.25706 7.0957031 117.23315 8.293729 122.71094 10.472656 C 122.68514 12.916074 122.64244 15.350094 122.47461 17.835938 C 116.49659 18.062841 111.47587 19.502798 106.78906 21.365234 C 104.92605 19.879348 102.0862 18.635546 98.726562 17.699219 C 95.611609 16.831083 92.058248 16.259765 88.488281 16.189453 L 88.275391 10.09375 C 93.48167 8.1554979 99.116027 7.0957031 105 7.0957031 z M 124.81641 11.369141 C 135.34596 16.155664 143.8328 24.640468 148.62305 35.167969 L 148.23242 35.767578 C 144.79391 33.969215 140.17782 32.712768 136.55273 31.800781 C 132.15869 24.789342 128.22536 20.769495 124.55273 18.447266 C 124.7308 16.030656 124.78714 13.686519 124.81641 11.369141 z M 87.328125 18.300781 C 91.060748 18.256501 94.887708 18.826797 98.158203 19.738281 C 101.47559 20.662833 104.23334 21.981504 105.66797 23.185547 L 107.87109 38.5625 C 104.75595 40.950898 101.54107 43.718664 98.589844 46.492188 L 97.775391 32.5625 L 72.589844 34.095703 C 72.487935 33.134599 72.418564 32.195516 72.386719 31.291016 C 76.892796 25.347337 81.872904 21.017372 87.328125 18.300781 z M 66.822266 31.144531 C 67.999291 31.091491 69.146739 31.124721 70.265625 31.246094 C 70.29529 32.214585 70.365306 33.212971 70.46875 34.226562 L 61.560547 34.767578 C 62.06913 33.676601 62.61663 32.608779 63.203125 31.564453 C 64.43829 31.336994 65.64524 31.197573 66.822266 31.144531 z M 135.9707 33.841797 C 139.83776 34.831022 144.79765 36.239562 147.88086 37.990234 C 149.56908 42.750636 151.31986 47.415088 152.07812 53.597656 L 131.45312 54.945312 C 130.68828 51.643669 129.74523 48.345533 128.64453 45.050781 L 135.9707 33.841797 z M 109.3125 40.125 C 115.44529 41.517161 121.09 43.537077 126.62695 45.695312 C 127.67447 48.828367 128.57431 51.958786 129.31055 55.085938 L 99.207031 57.054688 L 98.751953 49.265625 C 102.03948 46.090833 105.76428 42.833958 109.3125 40.125 z M 143.05469 84.113281 C 142.05285 85.42124 140.9843 86.676516 139.85547 87.873047 L 139.23633 87.341797 C 139.84249 86.325922 140.40362 85.298138 140.91797 84.257812 L 143.05469 84.113281 z M 117.95898 85.800781 L 119.72461 92.478516 C 116.33644 95.705192 109.85142 99.823719 104.1543 101.16211 C 96.96068 100.12306 90.826345 98.30222 85.304688 95.146484 C 84.255303 93.206929 83.42901 90.690762 82.865234 88.160156 L 117.95898 85.800781 z M 80.679688 88.308594 C 81.178204 90.666625 81.914112 93.037004 82.894531 95.097656 C 81.601197 95.118796 80.149626 95.067376 78.539062 94.945312 C 75.893352 93.18992 73.432378 91.177224 71.191406 88.945312 L 80.679688 88.308594 z M 137.78516 88.884766 L 138.36523 89.382812 C 129.95214 97.548057 118.54862 102.64992 105.94922 102.89453 C 111.78267 101.2306 117.65288 97.384755 121.10742 94.089844 C 127.62864 93.701803 133.18809 91.966627 137.78516 88.884766 z " /><path style="fill:#fde70e" d="m 98.779785,49.738178 95.900855,-6.748769 0.57473,7.782969 -96.047805,6.282346 z" /><path style="fill:#fde70e" d="m 16.471021,61.129604 -1.244074,-18.891384 3.559999,-0.23444 1.244075,18.891384 z m 0.805577,-7.582348 -0.225885,-3.430073 9.679561,-0.637439 0.225884,3.430074 z m -0.524497,-7.964525 -0.225884,-3.430073 11.108758,-0.731557 0.225884,3.430073 z m 25.197603,13.868998 -1.244074,-18.891384 3.559999,-0.23444 1.244075,18.891384 z m -10.342188,0.681076 -1.244075,-18.891385 3.56,-0.23444 1.244074,18.891384 z m 1.146111,-7.761362 -0.225884,-3.430073 11.004816,-0.724712 0.225884,3.430073 z m 16.912887,6.559054 -1.243219,-18.878391 4.352555,-0.286634 7.982214,14.010976 -0.28957,0.358335 -0.97541,-14.811679 3.404089,-0.224173 1.243219,18.878391 -4.37854,0.288345 -7.941684,-13.79181 0.289571,-0.358335 0.960864,14.590802 z m 22.882643,-7.809603 2.782016,-12.840782 2.858392,-0.188236 4.441923,12.365056 1.599684,-12.762921 3.663939,-0.241285 -3.108476,19.178017 -3.35212,0.220751 -4.221427,-12.979831 -2.638716,13.431599 -3.352115,0.220751 -5.59663,-18.604751 3.663939,-0.241285 z" /><path style="fill:#ffffff" d="m 46.214795,75.218306 6.548319,-0.431234 0.242997,3.689924 q 0.140322,2.130803 -0.611953,3.785376 -0.753134,1.64158 -2.241081,2.626904 -1.475814,0.971472 -3.554644,1.108372 -2.091825,0.137755 -3.717845,-0.577254 -1.613884,-0.728857 -2.582791,-2.16569 -0.956771,-1.450685 -1.088537,-3.45156 l -0.367062,-5.573868 q -0.140322,-2.130803 0.612811,-3.77238 0.753132,-1.64158 2.228944,-2.613056 1.487949,-0.985324 3.56678,-1.122224 1.715037,-0.112942 3.164454,0.496259 1.462405,0.608342 2.506859,1.805316 1.044458,1.196978 1.493497,2.863784 v 0 l -3.845839,0.253264 v 0 q -0.34658,-0.903659 -1.236618,-1.340911 -0.877896,-0.4511 -1.839356,-0.387784 -1.442189,0.09497 -2.251951,1.074782 -0.809762,0.979809 -0.709654,2.499953 l 0.367062,5.573868 q 0.08813,1.338248 1.03853,2.097753 0.949545,0.746509 2.417719,0.649824 1.44219,-0.09497 2.255374,-1.022813 0.81233,-0.940828 0.7088,-2.512945 l -0.02053,-0.311816 -2.858395,0.188237 z m 11.667634,2.20682 -0.225884,-3.430073 6.574307,-0.432945 q 0.831532,-0.05476 1.285042,-0.697932 0.466501,-0.644024 0.413611,-1.645319 v 0 q -0.06588,-1.000436 -0.612813,-1.577725 -0.533938,-0.578141 -1.378462,-0.522526 l -6.574308,0.432945 -0.225884,-3.430073 6.860146,-0.451769 q 1.572118,-0.10353 2.787665,0.521069 1.228536,0.623743 1.962022,1.854248 0.733486,1.230505 0.845573,2.932546 v 0 q 0.112086,1.702044 -0.46669,3.018967 -0.565785,1.316063 -1.688921,2.094677 -1.12314,0.778611 -2.695257,0.882141 z m -0.915663,7.693991 -1.24493,-18.904376 3.559997,-0.234441 1.24493,18.904377 z m 9.978393,-0.657118 -5.125467,-7.883367 3.767504,-0.84836 5.671537,8.447661 z m 13.486263,-0.692376 q -3.287154,0.216473 -5.21378,-1.496564 -1.914493,-1.726888 -2.135243,-5.079003 l -0.794017,-12.057226 3.56,-0.234441 0.800007,12.148173 q 0.106952,1.624086 1.036503,2.463257 0.929547,0.83917 2.514656,0.734784 1.598102,-0.105241 2.409577,-1.059065 0.824463,-0.954679 0.71751,-2.578766 L 82.526628,64.4626 l 3.560001,-0.234441 0.794017,12.057226 q 0.220751,3.352116 -1.463738,5.316011 -1.68534,1.950899 -4.985486,2.168227 z m -0.410262,-20.694866 -0.234441,-3.560011 3.56,-0.234441 0.234441,3.559997 z m -5.456933,0.359361 -0.234441,-3.560011 3.56,-0.234441 0.23444,3.559997 z m 24.288208,12.741426 2.760465,-12.969853 4.69036,-0.30888 1.24408,18.891384 -3.23518,0.21305 -0.966,-14.668771 0.18468,0.822976 -2.83934,11.970269 -3.144235,0.207061 -4.36748,-11.234689 0.05805,-1.099942 0.965997,14.668756 -3.235181,0.213049 -1.244075,-18.891384 4.690364,-0.308879 z m 13.994085,-2.095982 -0.22589,-3.430073 6.04161,-0.397865 q 0.96145,-0.06332 1.51719,-0.739317 0.55489,-0.688994 0.48558,-1.741403 v 0 q -0.071,-1.078394 -0.7106,-1.675675 -0.62745,-0.611132 -1.60191,-0.54696 l -6.0416,0.397864 -0.22589,-3.430073 5.95066,-0.391875 q 1.79299,-0.118076 3.16616,0.52224 1.38531,0.626472 2.21146,1.876972 0.82614,1.250496 0.94165,3.00451 v 0 q 0.11465,1.741025 -0.54037,3.089062 -0.65502,1.348042 -1.94621,2.150768 -1.29119,0.80273 -3.07119,0.91995 z m -1.14152,7.434834 -1.24407,-18.891384 3.55999,-0.23444 1.24408,18.891384 z m 18.49183,-20.191073 1.24408,18.891384 -3.68993,0.242996 -1.24407,-18.891384 z m 11.61225,18.208597 -0.21134,-3.209196 5.92207,-8.950165 q 0.40411,-0.600773 0.59861,-1.213836 0.20666,-0.626916 0.17244,-1.146625 l -0.002,-0.02602 q -0.0505,-0.76657 -0.57158,-1.149823 -0.5211,-0.383252 -1.43059,-0.323358 -0.87051,0.05733 -1.39069,0.678792 -0.50805,0.607614 -0.55482,1.680716 l 8.4e-4,0.01282 -3.65095,0.24043 -8.4e-4,-0.01282 q 0.005,-2.701466 1.44038,-4.283597 1.44859,-1.58299 3.90421,-1.744702 2.6635,-0.175403 4.20339,1.015046 1.55288,1.189593 1.70775,3.541269 l 8.5e-4,0.01282 q 0.0847,1.286275 -0.28619,2.589508 -0.35876,1.289381 -1.09671,2.368854 l -4.26465,6.179012 6.45738,-0.425244 0.22588,3.430073 z m 19.69678,-1.101364 q -2.81941,0.18567 -4.33059,-1.163253 -1.51204,-1.36192 -1.67461,-3.830534 l -0.56556,-8.588172 q -0.16514,-2.507592 1.16994,-4.030908 1.33508,-1.523316 4.12851,-1.707275 2.80642,-0.184814 4.31675,1.15112 1.52245,1.322088 1.68844,3.842672 l 0.56557,8.588171 q 0.16514,2.507592 -1.16994,4.030908 -1.33508,1.523312 -4.12851,1.707271 z m -0.22588,-3.430069 q 1.11737,-0.07358 1.54847,-0.85882 0.44324,-0.799083 0.35597,-2.124339 l -0.44578,-6.769196 q -0.0881,-1.338248 -0.63148,-2.059309 -0.53035,-0.721919 -1.64772,-0.648336 -1.10438,0.07273 -1.54848,0.858819 -0.4441,0.786088 -0.35597,2.124336 l 0.44578,6.769197 q 0.0873,1.325255 0.63148,2.059311 0.54335,0.721064 1.64773,0.648337 z m 8.95713,2.659347 -0.21134,-3.209196 5.92207,-8.950166 q 0.4041,-0.600772 0.59862,-1.213836 0.20665,-0.626916 0.17243,-1.146624 l -0.002,-0.02602 q -0.0505,-0.76657 -0.57159,-1.149822 -0.5211,-0.383252 -1.43059,-0.323358 -0.87051,0.05733 -1.39069,0.678792 -0.50805,0.607614 -0.55482,1.680715 l 8.4e-4,0.01282 -3.65096,0.24043 -8.5e-4,-0.01282 q 0.005,-2.701466 1.44039,-4.283597 1.44859,-1.58299 3.90421,-1.744703 2.6635,-0.175402 4.20339,1.015046 1.55288,1.189594 1.70775,3.54127 l 8.4e-4,0.01282 q 0.0847,1.286275 -0.28618,2.589508 -0.35875,1.289381 -1.09671,2.368854 l -4.26464,6.179012 6.45737,-0.425244 0.22588,3.430073 z m 18.39751,-1.015802 q -2.62453,0.172836 -4.1781,-1.225494 -1.54059,-1.399186 -1.71941,-4.114658 l -8.5e-4,-0.01282 q -0.0804,-1.221313 0.1814,-2.595655 0.26097,-1.387335 0.78606,-2.726819 l 3.29723,-8.385838 4.02774,-0.265243 -3.92713,9.719175 -0.92729,-0.408701 q 0.59091,-1.330767 2.31894,-1.444565 2.35168,-0.154867 3.7355,1.241594 1.38296,1.383468 1.56007,4.072956 l 8.5e-4,0.01282 q 0.18053,2.741461 -1.17454,4.357435 -1.34294,1.602126 -3.98046,1.775817 z m -0.22588,-3.430069 q 0.96146,-0.06332 1.43225,-0.642379 0.46992,-0.592058 0.40317,-1.605486 l -8.4e-4,-0.01282 q -0.0762,-1.156351 -0.6248,-1.759625 -0.54864,-0.603274 -1.5101,-0.539958 -0.93547,0.06161 -1.41239,0.745465 -0.46479,0.670013 -0.38865,1.826364 l 8.6e-4,0.01282 q 0.0667,1.013428 0.60938,1.525755 0.55565,0.511468 1.49112,0.449864 z" /></svg>