<?xml version="1.0" encoding="UTF-8" standalone="no"?>
<svg
  width="200"
  height="100"
  viewBox="0 0 200 100"
  version="1.1"
  xmlns="http://www.w3.org/2000/svg">
  <g>
    <circle
      style="fill:#ffffff;stroke:#000000;stroke-width:2.09555"
      cx="100"
      cy="50"
      r="48.952229" />
    <path
      style="fill:#000000;stroke:none"
      d="m 69.993924,44.487228 c 6.062274,0.852222 11.933043,2.5343 17.759133,4.409987 l 4.827151,20.560075 -16.507656,7.389705 c -5.069507,-3.81253 -10.059058,-7.804963 -13.259755,-15.822317 1.197016,-6.159344 3.064506,-11.95627 7.181127,-16.53745 z" />
    <path
      style="fill:#000000;stroke:none"
      d="m 100.48326,16.897986 c 5.31882,-2.222638 11.00195,-3.983826 17.99361,-4.087543 4.07973,2.252833 8.46594,6.497798 13.44254,14.580307 l -9.02168,13.802968 c -6.3217,-2.491394 -12.74583,-4.851111 -19.84396,-6.344256 z" />
    <path
      style="fill:#000000;stroke:none"
      d="m 111.58664,75.603003 c 5.96196,-4.032555 11.12933,-8.700784 15.50211,-14.004687 l 12.69361,5.310017 c -0.84551,5.770726 -2.88292,11.223614 -6.11221,16.358666 -4.97739,3.625327 -11.14667,5.582011 -18.50785,5.87005 z" />
    <path
      style="fill:#000000;stroke:none"
      d="M 56.231378,26.996164 C 62.073917,15.981433 71.069494,8.1458432 83.218108,3.4893922 l 0.325023,9.2367728 c -6.011919,2.696935 -11.461975,7.3042 -16.35017,13.821794 -3.37293,-0.693391 -7.026791,-0.543989 -10.961583,0.448205 z" />
    <path
      style="fill:#000000;stroke:none"
      d="m 142.49646,31.899689 2.10796,-3.237809 c 3.72869,7.928085 5.30298,16.180366 4.72287,24.756842 l -1.9005,-0.407086 c -0.33764,-9.03443 -2.75464,-14.88866 -4.93033,-21.111947 z" />
    <path
      style="fill:#000000;stroke:none"
      d="m 80.023852,89.9848 c 5.632349,3.277693 11.900376,5.144984 19.280826,6.197819 l 0.69532,3.263003 C 88.532959,99.11243 78.390122,95.629608 70.454187,89.647374 c 3.953615,0.457241 7.143504,0.569717 9.569665,0.337426 z" />
    <path
      style="fill:none;stroke:#000000;stroke-width:2.11667"
      d="m 81.478291,12.262629 c 8.228259,-0.298756 16.962347,2.397463 20.142739,5.35173" />
    <path
      style="fill:none;stroke:#000000;stroke-width:2.11667"
      d="m 66.30927,25.126677 c -0.01986,6.535971 2.134606,15.032639 4.021771,20.45618" />
    <path
      style="fill:none;stroke:#000000;stroke-width:2.11667"
      d="M 87.078823,49.697868 C 91.225548,44.935824 97.758538,38.778353 103.81229,34.175228" />
    <path
      style="fill:none;stroke:#000000;stroke-width:2.11667"
      d="m 63.408741,61.024678 c -4.800948,0.638702 -9.08541,0.56227 -11.6615,-0.229294" />
    <path
      style="fill:none;stroke:#000000;stroke-width:2.11667"
      d="m 75.946133,75.582806 c -0.113166,4.538187 1.277988,11.858757 4.025354,16.079107" />
    <path
      style="fill:none;stroke:#000000;stroke-width:2.11667"
      d="m 91.686288,69.099724 c 5.30251,3.081541 13.366222,5.845243 20.734672,6.860844" />
    <path
      style="fill:none;stroke:#000000;stroke-width:2.11667"
      d="m 97.397658,97.55329 c 6.875062,-0.838799 15.021462,-6.107448 18.718152,-9.965697" />
    <path
      style="fill:none;stroke:#000000;stroke-width:2.11667"
      d="m 133.1338,82.790242 2.15257,1.847045" />
    <path
      style="fill:none;stroke:#000000;stroke-width:2.11667"
      d="m 137.84217,68.295198 c 4.61303,-4.208403 8.91991,-10.329665 10.683,-16.43803" />
    <path
      style="fill:none;stroke:#000000;stroke-width:2.11667"
      d="m 122.58599,40.226229 c 2.52041,7.508896 4.21301,15.017792 4.82715,22.526688" />
    <path
      style="fill:none;stroke:#000000;stroke-width:2.11667"
      d="m 129.57653,27.400974 c 4.26134,1.057769 10.85346,2.707576 14.5549,5.109119" />
    <path
      style="fill:none;stroke:#000000;stroke-width:2.11667"
      d="m 118.47687,13.653235 c 0.2486,-3.204935 0.27355,-6.2980448 0.30327,-9.3935368" />
    <path
      style="fill:#000000;stroke:none"
      d="M 200,74.943262 20.673207,87.000684 19.730647,61.813965 1.5766711,63.149911 0,33.208145 92.759939,27.557892 94.191938,52.050282 198.65405,45.217569" />
    <path
      style="fill:#f9e500;stroke:none"
      d="m 93.764159,44.733736 95.900861,-6.748769 0.57473,7.782969 -96.047812,6.282346 z" />
    <path
      style="fill:#f9e500;stroke:none"
      d="m 11.455396,56.125162 -1.244074,-18.891384 3.559999,-0.23444 1.244075,18.891384 z m 0.805577,-7.582348 -0.225885,-3.430073 9.679561,-0.637439 0.225884,3.430074 z m -0.524497,-7.964525 -0.225884,-3.430073 11.108758,-0.731557 0.225884,3.430073 z m 25.197603,13.868998 -1.244074,-18.891384 3.559999,-0.23444 1.244075,18.891384 z m -10.342188,0.681076 -1.244075,-18.891385 3.56,-0.23444 1.244074,18.891384 z m 1.146111,-7.761362 -0.225884,-3.430073 11.004816,-0.724712 0.225884,3.430073 z m 16.912887,6.559054 -1.243219,-18.878391 4.352555,-0.286634 7.982214,14.010976 -0.28957,0.358335 -0.97541,-14.811679 3.404089,-0.224173 1.243219,18.878391 -4.37854,0.288345 -7.941684,-13.79181 0.289571,-0.358335 0.960864,14.590802 z M 67.533532,46.116452 70.315548,33.27567 73.17394,33.087434 77.615863,45.45249 79.215547,32.689569 82.879486,32.448284 79.77101,51.626301 76.41889,51.847052 72.197463,38.867221 69.558747,52.29882 66.206632,52.519571 60.610002,33.91482 64.273941,33.673535 Z" />
    <path
      style="fill:#ffffff;stroke:none"
      d="m 41.19917,70.213864 6.548319,-0.431234 0.242997,3.689924 q 0.140322,2.130803 -0.611953,3.785376 -0.753134,1.64158 -2.241081,2.626904 -1.475814,0.971472 -3.554644,1.108372 -2.091825,0.137755 -3.717845,-0.577254 -1.613884,-0.728857 -2.582791,-2.16569 -0.956771,-1.450685 -1.088537,-3.45156 l -0.367062,-5.573868 q -0.140322,-2.130803 0.612811,-3.77238 0.753132,-1.64158 2.228944,-2.613056 1.487949,-0.985324 3.56678,-1.122224 1.715037,-0.112942 3.164454,0.496259 1.462405,0.608342 2.506859,1.805316 1.044458,1.196978 1.493497,2.863784 v 0 l -3.845839,0.253264 v 0 q -0.34658,-0.903659 -1.236618,-1.340911 -0.877896,-0.4511 -1.839356,-0.387784 -1.442189,0.09497 -2.251951,1.074782 -0.809762,0.979809 -0.709654,2.499953 l 0.367062,5.573868 q 0.08813,1.338248 1.03853,2.097753 0.949545,0.746509 2.417719,0.649824 1.44219,-0.09497 2.255374,-1.022813 0.81233,-0.940828 0.7088,-2.512945 l -0.02053,-0.311816 -2.858395,0.188237 z m 11.667634,2.20682 -0.225884,-3.430073 6.574307,-0.432945 q 0.831532,-0.05476 1.285042,-0.697932 0.466501,-0.644024 0.413611,-1.645319 v 0 Q 60.848,65.213979 60.301067,64.63669 59.767129,64.058549 58.922605,64.114164 l -6.574308,0.432945 -0.225884,-3.430073 6.860146,-0.451769 q 1.572118,-0.10353 2.787665,0.521069 1.228536,0.623743 1.962022,1.854248 0.733486,1.230505 0.845573,2.932546 v 0 q 0.112086,1.702044 -0.46669,3.018967 -0.565785,1.316063 -1.688921,2.094677 -1.12314,0.778611 -2.695257,0.882141 z m -0.915663,7.693991 -1.24493,-18.904376 3.559997,-0.234441 1.24493,18.904377 z m 9.978393,-0.657118 -5.125467,-7.883367 3.767504,-0.84836 5.671537,8.447661 z m 13.486263,-0.692376 q -3.287154,0.216473 -5.21378,-1.496564 -1.914493,-1.726888 -2.135243,-5.079003 l -0.794017,-12.057226 3.56,-0.234441 0.800007,12.148173 q 0.106952,1.624086 1.036503,2.463257 0.929547,0.83917 2.514656,0.734784 1.598102,-0.105241 2.409577,-1.059065 0.824463,-0.954679 0.71751,-2.578766 l -0.800007,-12.148172 3.560001,-0.234441 0.794017,12.057226 q 0.220751,3.352116 -1.463738,5.316011 -1.68534,1.950899 -4.985486,2.168227 z m -0.410262,-20.694866 -0.234441,-3.560011 3.56,-0.234441 0.234441,3.559997 z m -5.456933,0.359361 -0.234441,-3.560011 3.56,-0.234441 0.23444,3.559997 z m 24.28821,12.741426 2.760468,-12.969853 4.69036,-0.30888 1.24408,18.891384 -3.235183,0.21305 -0.965998,-14.668771 0.184683,0.822976 -2.839343,11.970269 -3.144235,0.207061 -4.367484,-11.234689 0.05805,-1.099942 0.965997,14.668756 -3.235181,0.213049 -1.244075,-18.891384 4.690364,-0.308879 z m 13.994088,-2.095982 -0.22589,-3.430073 6.04161,-0.397865 q 0.96145,-0.06332 1.51719,-0.739317 0.55489,-0.688994 0.48558,-1.741403 v 0 q -0.071,-1.078394 -0.7106,-1.675675 -0.62745,-0.611132 -1.60191,-0.54696 l -6.0416,0.397864 -0.22589,-3.430073 5.95066,-0.391875 q 1.79299,-0.118076 3.16616,0.52224 1.38531,0.626472 2.21146,1.876972 0.82614,1.250496 0.94165,3.00451 v 0 q 0.11465,1.741025 -0.54037,3.089062 -0.65502,1.348042 -1.94621,2.150768 -1.29119,0.80273 -3.07119,0.91995 z m -1.14152,7.434834 -1.24407,-18.891384 3.55999,-0.23444 1.24408,18.891384 z m 18.49183,-20.191073 1.24408,18.891384 -3.68993,0.242996 -1.24407,-18.891384 z m 11.61225,18.208597 -0.21134,-3.209196 5.92207,-8.950165 q 0.40411,-0.600773 0.59861,-1.213836 0.20666,-0.626916 0.17244,-1.146625 l -0.002,-0.02602 q -0.0505,-0.76657 -0.57158,-1.149823 -0.5211,-0.383252 -1.43059,-0.323358 -0.87051,0.05733 -1.39069,0.678792 -0.50805,0.607614 -0.55482,1.680716 l 8.4e-4,0.01282 -3.65095,0.24043 -8.4e-4,-0.01282 q 0.005,-2.701466 1.44038,-4.283597 1.44859,-1.58299 3.90421,-1.744702 2.6635,-0.175403 4.20339,1.015046 1.55288,1.189593 1.70775,3.541269 l 8.5e-4,0.01282 q 0.0847,1.286275 -0.28619,2.589508 -0.35876,1.289381 -1.09671,2.368854 l -4.26465,6.179012 6.45738,-0.425244 0.22588,3.430073 z m 19.69678,-1.101364 q -2.81941,0.18567 -4.33059,-1.163253 -1.51204,-1.36192 -1.67461,-3.830534 l -0.56556,-8.588172 q -0.16514,-2.507592 1.16994,-4.030908 1.33508,-1.523316 4.12851,-1.707275 2.80642,-0.184814 4.31675,1.15112 1.52245,1.322088 1.68844,3.842672 l 0.56557,8.588171 q 0.16514,2.507592 -1.16994,4.030908 -1.33508,1.523312 -4.12851,1.707271 z m -0.22588,-3.430069 q 1.11737,-0.07358 1.54847,-0.85882 0.44324,-0.799083 0.35597,-2.124339 l -0.44578,-6.769196 q -0.0881,-1.338248 -0.63148,-2.059309 -0.53035,-0.721919 -1.64772,-0.648336 -1.10438,0.07273 -1.54848,0.858819 -0.4441,0.786088 -0.35597,2.124336 l 0.44578,6.769197 q 0.0873,1.325255 0.63148,2.059311 0.54335,0.721064 1.64773,0.648337 z m 8.95713,2.659347 -0.21134,-3.209196 5.92207,-8.950166 q 0.4041,-0.600772 0.59862,-1.213836 0.20665,-0.626916 0.17243,-1.146624 l -0.002,-0.02602 q -0.0505,-0.76657 -0.57159,-1.149822 -0.5211,-0.383252 -1.43059,-0.323358 -0.87051,0.05733 -1.39069,0.678792 -0.50805,0.607614 -0.55482,1.680715 l 8.4e-4,0.01282 -3.65096,0.24043 -8.5e-4,-0.01282 q 0.005,-2.701466 1.44039,-4.283597 1.44859,-1.58299 3.90421,-1.744703 2.6635,-0.175402 4.20339,1.015046 1.55288,1.189594 1.70775,3.54127 l 8.4e-4,0.01282 q 0.0847,1.286275 -0.28618,2.589508 -0.35876,1.289381 -1.09671,2.368854 l -4.26465,6.179012 6.45737,-0.425244 0.22589,3.430073 z M 183.619,71.63959 q -2.62453,0.172836 -4.1781,-1.225494 -1.54059,-1.399186 -1.71941,-4.114658 l -8.5e-4,-0.01282 q -0.0804,-1.221313 0.1814,-2.595655 0.26097,-1.387335 0.78606,-2.726819 l 3.29723,-8.385838 4.02774,-0.265243 -3.92713,9.719175 -0.92729,-0.408701 q 0.59091,-1.330767 2.31894,-1.444565 2.35168,-0.154867 3.7355,1.241594 1.38296,1.383468 1.56007,4.072956 l 8.5e-4,0.01282 q 0.18053,2.741461 -1.17454,4.357435 -1.34294,1.602126 -3.98046,1.775817 z m -0.22588,-3.430069 q 0.96146,-0.06332 1.43224,-0.642379 0.46992,-0.592058 0.40318,-1.605486 l -8.4e-4,-0.01282 q -0.0762,-1.156351 -0.6248,-1.759625 -0.54864,-0.603274 -1.5101,-0.539958 -0.93547,0.06161 -1.4124,0.745465 -0.46479,0.670013 -0.38864,1.826364 l 8.5e-4,0.01282 q 0.0667,1.013428 0.60939,1.525755 0.55564,0.511468 1.49112,0.449864 z" />
  </g>
</svg>