<?xml version="1.0" encoding="UTF-8" standalone="no"?>
<svg width="150" height="200" viewBox="0 0 150 200" version="1.1" xmlns="http://www.w3.org/2000/svg"><path style="fill:#fde70e;stroke:#000000;stroke-width:5" d="M 10.054705,103.74884 C 3.9113049,90.842112 0.5450621,76.234736 3.7169315,62.018139 9.059303,31.630959 35.392021,6.478218 65.988027,3.1630024 95.99953,-1.1369759 127.28198,15.989494 140.23087,43.494793 c 8.28447,16.725953 10.05504,37.063384 2.29909,54.328116 -18.59538,44.694471 -68.404578,98.357631 -68.404578,98.357631 0,0 -47.246421,-58.67756 -64.070677,-92.4317 z" /><circle style="fill:#ffffff;stroke:#000000;stroke-width:5" cx="75" cy="74.000389" r="50.342392" /><path style="fill:#000000" d="m 39.532053,92.283656 c -3.867825,-0.766589 -6.992638,-5.025345 -6.431736,-8.765697 0.253843,-1.692754 1.262474,-3.657453 2.471639,-4.814479 0.965024,-0.923409 4.486157,-2.699152 12.503959,-6.30588 4.603377,-2.070787 20.875391,-9.485411 22.421461,-10.216731 0.856391,-0.405087 0.892388,-0.496069 1.038259,-2.624282 0.252086,-3.677857 1.358611,-5.40862 4.629673,-7.241462 2.163137,-1.212055 2.999877,-2.4041 2.999877,-4.27372 0,-2.672816 -1.5162,-4.219863 -4.135728,-4.219863 -2.525454,0 -3.842155,1.335243 -4.285873,4.346236 -0.553506,3.755976 -5.518211,4.209338 -6.705338,0.61231 -1.018805,-3.087012 1.63406,-8.366816 5.276489,-10.50142 6.799557,-3.984806 15.276721,0.03437 16.732104,7.933058 0.846671,4.59503 -1.779475,9.859561 -5.980179,11.988218 -1.465831,0.742788 -1.471921,0.751569 -1.471921,2.1214 0,1.146523 0.106844,1.425988 0.641752,1.678614 1.204587,0.568905 18.310638,8.396262 24.600459,11.256625 3.45119,1.569469 6.9754,3.182759 7.83157,3.585085 6.7662,3.179546 7.12779,11.623614 0.63428,14.812406 l -1.62052,0.795797 -34.939766,0.04284 c -19.258012,0.0236 -35.510088,-0.07023 -36.210461,-0.209037 z m 70.378427,-7.550532 c 0.15267,-1.067187 1.92846,-0.191986 -28.68752,-14.138692 -3.800579,-1.731298 -5.221535,-2.245871 -6.201803,-2.245871 -1.293142,0 -1.485616,0.08326 -23.379958,10.113137 -2.823704,1.293545 -6.39937,2.916462 -7.945924,3.606477 -2.980446,1.329765 -3.954826,2.201433 -3.318242,2.968476 0.312333,0.376334 4.492366,0.418864 34.902208,0.355099 l 34.547379,-0.07244 z" /></svg>