<?xml version="1.0" encoding="UTF-8" standalone="no"?>
<svg width="150" height="200" viewBox="0 0 150 200" version="1.1" xmlns="http://www.w3.org/2000/svg"><g><path style="fill:#fde70e;stroke:#000000;stroke-width:4.53543307" d="M 10.030962,103.75734 C 3.8853152,90.846117 0.51784127,76.233655 3.6908706,62.012108 9.0351962,31.614349 35.377547,6.4528498 65.984742,3.13648 c 30.022479,-4.3014754 61.316378,12.830957 74.269998,40.345833 8.28749,16.731777 10.05871,37.076288 2.29992,54.34703 -18.60217,44.710027 -68.429587,98.391867 -68.429587,98.391867 0,0 -47.263701,-58.69799 -64.094111,-92.46387 z" /><circle style="fill:#ffffff;stroke:#000000;stroke-width:4.53543307" cx="75" cy="74.145294" r="48.952229" /><path d="m 62.455559,85.867401 a 4.1814803,4.1814803 0 1 1 -8.36296,0 4.1814803,4.1814803 0 0 1 8.36296,0 m 33.451843,0 a 4.1814805,4.1814805 0 1 1 -8.362961,0 4.1814805,4.1814805 0 0 1 8.362961,0 M 70.81852,81.685921 a 4.1814805,4.1814805 0 1 0 0,8.362961 h 8.362961 a 4.1814805,4.1814805 0 1 0 0,-8.362961 z M 75,56.597039 c -7.844457,0 -14.325751,0.455782 -19.034098,0.945015 a 2.0907401,2.0907401 0 0 0 -1.873303,2.078195 V 74.48123 a 2.0907401,2.0907401 0 0 0 1.873303,2.078196 C 60.674249,77.048659 67.155543,77.504441 75,77.504441 c 7.844457,0 14.325752,-0.455782 19.034099,-0.945015 A 2.0907401,2.0907401 0 0 0 95.907402,74.48123 V 59.620249 A 2.0907401,2.0907401 0 0 0 94.034099,57.542054 183.98513,183.98513 0 0 0 75,56.597039 m 0,-4.18148 c -7.681379,0 -14.020503,0.447418 -18.599224,0.919926 A 2.0907401,2.0907401 0 1 1 55.965902,49.179093 183.98513,183.98513 0 0 1 75,48.234079 c 7.844457,0 14.325752,0.455781 19.034099,0.945014 A 2.0907401,2.0907401 0 1 1 93.599225,53.335485 179.80365,179.80365 0 0 0 75,52.415559" style="fill:#000000" /><path d="m 104.27036,73.32296 a 4.1814803,4.1814803 0 0 0 4.18148,-4.18148 v -8.36296 a 4.1814803,4.1814803 0 0 0 -4.18148,-4.181481 v -5.686813 c 0,-4.967599 -3.53335,-9.333064 -8.630573,-9.918471 A 183.98513,183.98513 0 0 0 75,39.871118 c -8.781108,0 -15.856173,0.568681 -20.639786,1.120637 -5.097225,0.585407 -8.630576,4.950872 -8.630576,9.918471 v 5.686813 a 4.1814803,4.1814803 0 0 0 -4.18148,4.181481 v 8.36296 a 4.1814803,4.1814803 0 0 0 4.18148,4.18148 v 14.635181 c 0,3.420451 1.643322,6.456206 4.181481,8.362961 v 8.362958 a 2.0907401,2.0907401 0 0 0 2.09074,2.09074 h 8.36296 a 2.0907401,2.0907401 0 0 0 2.09074,-2.09074 v -6.272218 h 25.088882 v 6.272218 a 2.0907401,2.0907401 0 0 0 2.09074,2.09074 h 8.362961 a 2.0907401,2.0907401 0 0 0 2.090738,-2.09074 v -8.362958 c 2.53816,-1.906755 4.18148,-4.94251 4.18148,-8.362961 z M 75,44.052598 c 8.597124,0 15.513292,0.560319 20.163098,1.091367 2.826681,0.326155 4.925782,2.759777 4.925782,5.766261 v 37.047915 a 6.2722204,6.2722204 0 0 1 -6.272218,6.272221 H 56.183339 a 6.2722204,6.2722204 0 0 1 -6.27222,-6.272221 V 50.910226 c 0,-3.010666 2.099103,-5.440106 4.925783,-5.766261 A 179.80365,179.80365 0 0 1 75,44.052598" style="fill:#000000" /></g></svg>