<?xml version="1.0" encoding="UTF-8" standalone="no"?>
<svg width="150" height="200" viewBox="0 0 150 200" version="1.1" xmlns="http://www.w3.org/2000/svg"><path style="fill:#fde70e;stroke:#000000;stroke-width:5" d="M 10.054705,103.74884 C 3.9113049,90.842112 0.5450621,76.234736 3.7169315,62.018139 9.059303,31.630959 35.392021,6.478218 65.988027,3.1630024 95.99953,-1.1369759 127.28198,15.989494 140.23087,43.494793 c 8.28447,16.725953 10.05504,37.063384 2.29909,54.328116 -18.59538,44.694471 -68.404578,98.357631 -68.404578,98.357631 0,0 -47.246421,-58.67756 -64.070677,-92.4317 z" /><circle style="fill:#ff0000;stroke:#000000;stroke-width:5" cx="75" cy="74" r="50.342392" /><path style="fill:#ffffff" d="M 44.510462,83.210226 34.039408,72.719094 44.149769,62.629532 54.260131,52.539971 h 5.897192 c 3.243476,0 5.897222,0.251218 5.897222,0.558066 0,0.306935 -3.337941,3.908538 -7.417636,8.00359 l -7.417607,7.445552 h 9.323232 9.323232 v -8.00359 -8.003618 h 4.954635 4.954608 v 8.003618 8.00359 h 9.705043 9.705045 l -7.976367,-8.00359 -7.976366,-8.003618 h 6.094941 6.09497 l 10.269155,10.290363 10.26916,10.290333 -10.26916,10.290366 -10.269155,10.290333 h -6.09497 -6.094941 l 7.976366,-8.003589 7.976367,-8.003622 h -9.705045 -9.705043 v 8.003622 8.003589 H 74.820402 69.865766 V 85.697777 77.694155 H 60.71879 c -5.030838,0 -9.146977,0.208292 -9.146977,0.462737 0,0.254386 3.258628,3.546667 7.24138,7.315938 3.982723,3.769248 7.241352,7.162649 7.241352,7.540881 0,0.378212 -2.491435,0.687655 -5.536528,0.687655 h -5.536499 z" /></svg>