<?xml version="1.0" encoding="UTF-8" standalone="no"?>
<svg width="150" height="200" viewBox="0 0 150 200" version="1.1" xmlns="http://www.w3.org/2000/svg"><path style="fill:#fde70e;stroke:#000000;stroke-width:5" d="M 10.054705,103.74884 C 3.9113049,90.842112 0.5450621,76.234736 3.7169315,62.018139 9.059303,31.630959 35.392021,6.478218 65.988027,3.1630024 95.99953,-1.1369759 127.28198,15.989494 140.23087,43.494793 c 8.28447,16.725953 10.05504,37.063384 2.29909,54.328116 -18.59538,44.694471 -68.404578,98.357631 -68.404578,98.357631 0,0 -47.246421,-58.67756 -64.070677,-92.4317 z" /><circle style="fill:#ffffff;stroke:#000000;stroke-width:5" cx="75" cy="74" r="50.342392" /><path style="fill:#000000" d="m 75,23.9985 c -27.601829,0 -50,22.398171 -50,50 0,4.05781 0.535685,7.98152 1.449219,11.75977 l -0.01367,0.0469 c 0.0082,0.002 0.01914,0.003 0.02734,0.006 5.319492,21.89503 25.012088,38.18734 48.537111,38.18734 27.60182,0 50,-22.39817 50,-50.00001 0,-27.601829 -22.39818,-50 -50,-50 z m 0,2.095703 c 6.257063,0 12.233153,1.198026 17.710938,3.376953 -0.02579,2.443418 -0.06854,4.877439 -0.236329,7.363282 -5.978017,0.226903 -10.998738,1.66686 -15.685547,3.529296 -1.863014,-1.485886 -4.702866,-2.729688 -8.0625,-3.666015 -3.114954,-0.868136 -6.668314,-1.439454 -10.238281,-1.509766 L 58.275391,29.09225 C 63.48167,27.153998 69.116027,26.094203 75,26.094203 Z m 19.816406,4.273438 c 10.529554,4.786523 19.016394,13.271327 23.806644,23.798828 l -0.39063,0.599609 c -3.43851,-1.798363 -8.0546,-3.05481 -11.67969,-3.966797 -4.39405,-7.011439 -8.32737,-11.031286 -11.999996,-13.353515 0.17807,-2.41661 0.234409,-4.760747 0.263672,-7.078125 z m -37.488281,6.93164 c 3.732623,-0.04428 7.559583,0.526016 10.830078,1.4375 3.317383,0.924552 6.07514,2.243223 7.509766,3.447266 L 77.871094,57.561 C 72.022857,62.044876 65.823719,67.866542 61.675781,72.551234 56.568748,70.931761 51.420826,69.489975 46.132812,68.65475 44.439157,63.634695 42.595053,56.206733 42.386719,50.289516 46.892796,44.345837 51.872904,40.015872 57.328125,37.299281 Z m -20.505859,12.84375 c 1.177025,-0.05304 2.324473,-0.01981 3.443359,0.101563 0.195227,6.373648 2.1332,14.003385 3.904297,19.210937 -3.337419,4.154493 -5.035383,9.196039 -6.152344,14.550779 -3.936991,0.50349 -7.513035,0.48444 -9.867187,0.0391 -0.690594,-3.23959 -1.054688,-6.60045 -1.054688,-10.04691 0,-8.514549 2.217332,-16.508764 6.107422,-23.435547 1.235165,-0.227459 2.442115,-0.36688 3.619141,-0.419922 z m 69.148434,2.697266 c 3.86706,0.989225 8.82695,2.397765 11.91016,4.148437 1.98381,5.593894 4.05314,11.056391 4.49805,19.003906 -1.5968,5.16472 -5.11511,10.42065 -9.00391,14.32617 l -9.94923,-4.16211 c -0.6511,-7.38452 -2.32498,-14.754998 -4.78124,-22.107419 z M 79.3125,59.1235 c 6.132789,1.392161 11.777502,3.412076 17.314453,5.570312 2.435897,7.285637 4.078457,14.555578 4.703117,21.808598 -3.96579,4.6474 -8.613831,8.750601 -13.833976,12.394536 C 80.333585,97.899301 72.414199,95.186601 67.291016,92.22702 L 63.056641,74.186 C 67.115659,69.562576 73.454442,63.595953 79.3125,59.1235 Z m 42.96875,22.62109 c -1.56672,9.64799 -6.01072,18.32718 -12.42578,25.12697 l -0.61914,-0.53125 c 2.68966,-4.50765 4.47576,-9.255809 5.35547,-14.24611 2.94968,-2.89549 5.69607,-6.49146 7.68945,-10.34961 z m -84.013672,4.36524 c 2.943333,6.69962 7.197737,10.451231 11.615234,13.833976 -0.03369,4.071044 0.942639,9.803554 3.011719,14.152364 -1.293334,0.0211 -2.744905,-0.0303 -4.355469,-0.15235 -9.634635,-6.39245 -16.818911,-16.177999 -19.853515,-27.65626 2.622418,0.36942 5.944441,0.2886 9.582031,-0.17773 z m 27.964844,7.94922 c 5.386426,3.112241 13.31972,5.835796 20.71289,6.90235 l 2.779297,10.51563 c -3.388171,3.22667 -9.873187,7.3452 -15.570312,8.68359 -7.193614,-1.03905 -13.327951,-2.85989 -18.849609,-6.01563 -2.039033,-3.7687 -3.233809,-9.71232 -3.302735,-13.71485 z m 41.552738,13.82423 0.58007,0.49804 c -8.41309,8.16525 -19.816607,13.26711 -32.416011,13.51172 5.833451,-1.66393 11.703665,-5.50978 15.158203,-8.80469 6.521221,-0.38804 12.080658,-2.12321 16.677738,-5.20507 z" /></svg>