<?xml version="1.0" encoding="UTF-8" standalone="no"?>
<svg width="150" height="200" viewBox="0 0 150 200" version="1.1" xmlns="http://www.w3.org/2000/svg"><g><path style="fill:#fde70e;stroke:#000000;stroke-width:2.09386" d="M 8.7518655,104.21522 C 2.4850606,91.063493 -0.94880122,76.178837 2.2867826,61.692379 7.7364688,30.728386 34.598145,5.0981917 65.808744,1.7200464 96.423101,-2.6615547 128.33394,14.790012 141.54293,42.817421 c 8.45087,17.043447 10.25701,37.766925 2.34526,55.359378 -18.9689,45.542861 -69.778633,100.224651 -69.778633,100.224651 0,0 -48.195479,-59.79138 -65.3576915,-94.18623 z"/><circle style="fill:#ffffff;stroke:#000000;stroke-width:2.09386" cx="75" cy="74.145294" r="48.952229" /><path style="fill:#000000;stroke:none" d="m 44.993929,68.632523 c 6.062274,0.852222 11.933043,2.5343 17.759133,4.409987 L 67.58021,93.602585 51.072557,100.99229 C 46.00305,97.17976 41.013499,93.187327 37.812802,85.169973 c 1.197016,-6.159344 3.064506,-11.95627 7.181127,-16.53745 z" /><path style="fill:#000000;stroke:none" d="m 75.48326,41.043281 c 5.318826,-2.222638 11.001956,-3.983826 17.993614,-4.087543 4.079727,2.252833 8.465936,6.497798 13.442536,14.580307 L 97.897737,65.339013 C 91.576028,62.847619 85.151902,60.487902 78.053776,58.994757 Z" /><path style="fill:#000000;stroke:none" d="m 86.586642,99.748298 c 5.961963,-4.032555 11.129334,-8.700784 15.502108,-14.004687 l 12.69361,5.310017 c -0.84551,5.770726 -2.88292,11.223612 -6.11221,16.358662 -4.97739,3.62533 -11.146672,5.58201 -18.507844,5.87005 z" /><path style="fill:#000000;stroke:none" d="M 31.231383,51.141459 C 37.073922,40.126728 46.069499,32.291137 58.218113,27.634686 l 0.325023,9.236774 c -6.011919,2.696935 -11.461975,7.3042 -16.35017,13.821794 -3.37293,-0.693391 -7.026791,-0.543989 -10.961583,0.448205 z" /><path style="fill:#000000;stroke:none" d="m 117.49646,56.044984 2.10795,-3.237809 c 3.7287,7.928085 5.30299,16.180366 4.72288,24.756842 l -1.9005,-0.407086 c -0.33764,-9.03443 -2.75464,-14.88866 -4.93033,-21.111947 z" /><path style="fill:#000000;stroke:none" d="m 55.023857,114.13009 c 5.632349,3.27769 11.900371,5.14498 19.280823,6.19782 l 0.695327,3.263 c -11.467043,-0.33319 -21.60988,-3.81601 -29.545815,-9.79825 3.953615,0.45725 7.143504,0.56972 9.569665,0.33743 z" /><path style="fill:none;stroke:#000000;stroke-width:2.11667" d="m 56.478296,36.407924 c 8.228259,-0.298756 16.962351,2.397463 20.142733,5.35173" /><path style="fill:none;stroke:#000000;stroke-width:2.11667" d="m 41.309275,49.271972 c -0.01986,6.535971 2.134606,15.032639 4.021771,20.45618" /><path style="fill:none;stroke:#000000;stroke-width:2.11667" d="M 62.078828,73.843163 C 66.225555,69.081119 72.75854,62.923648 78.812289,58.320523" /><path style="fill:none;stroke:#000000;stroke-width:2.11667" d="m 38.408746,85.169973 c -4.800947,0.638702 -9.08541,0.56227 -11.6615,-0.229294" /><path style="fill:none;stroke:#000000;stroke-width:2.11667" d="m 50.946138,99.728101 c -0.113166,4.538189 1.277988,11.858759 4.025354,16.079099" /><path style="fill:none;stroke:#000000;stroke-width:2.11667" d="m 66.686295,93.245019 c 5.302507,3.081541 13.366221,5.845243 20.734668,6.860841" /><path style="fill:none;stroke:#000000;stroke-width:2.11667" d="m 72.397659,121.69858 c 6.875059,-0.8388 15.021467,-6.10745 18.718157,-9.96569" /><path style="fill:none;stroke:#000000;stroke-width:2.11667" d="m 108.1338,106.93554 2.15257,1.84704" /><path style="fill:none;stroke:#000000;stroke-width:2.11667" d="m 112.84217,92.440493 c 4.61303,-4.208403 8.91991,-10.329665 10.683,-16.43803" /><path style="fill:none;stroke:#000000;stroke-width:2.11667" d="m 97.585997,64.371524 c 2.520413,7.508896 4.213003,15.017792 4.827153,22.526688" /><path style="fill:none;stroke:#000000;stroke-width:2.11667" d="m 104.57653,51.546269 c 4.26135,1.057769 10.85346,2.707576 14.5549,5.109119" /><path style="fill:none;stroke:#000000;stroke-width:2.11654" d="m 93.476873,37.79853 c 0.248602,-3.204935 0.273554,-6.298045 0.303268,-9.393537" /></g></svg>