<?xml version="1.0" encoding="UTF-8" standalone="no"?>
<svg width="150" height="200" viewBox="0 0 150 200" version="1.1" xmlns="http://www.w3.org/2000/svg"><g><path style="fill:#fde70e;stroke:#000000;stroke-width:4.53543307" d="M 10.030962,103.75734 C 3.8853152,90.846117 0.51784127,76.233655 3.6908706,62.012108 9.0351962,31.614349 35.377547,6.4528498 65.984742,3.13648 c 30.022479,-4.3014754 61.316378,12.830957 74.269998,40.345833 8.28749,16.731777 10.05871,37.076288 2.29992,54.34703 -18.60217,44.710027 -68.429587,98.391867 -68.429587,98.391867 0,0 -47.263701,-58.69799 -64.094111,-92.46387 z"/><circle style="fill:#ffffff;stroke:#000000;stroke-width:4.53543307" cx="75" cy="74.145294" r="48.952229" /><path d="m 57.316747,49.571408 a 2.2104067,2.2104067 0 0 1 2.210407,-2.210406 h 4.420813 a 2.2104067,2.2104067 0 0 1 2.210407,2.210406 v 4.420814 a 2.2104067,2.2104067 0 0 1 -2.210407,2.210406 h -4.420813 a 2.2104067,2.2104067 0 0 1 -2.210407,-2.210406 z m 13.26244,0 a 2.2104067,2.2104067 0 0 1 2.210407,-2.210406 h 4.420813 a 2.2104067,2.2104067 0 0 1 2.210407,2.210406 v 4.420814 a 2.2104067,2.2104067 0 0 1 -2.210407,2.210406 h -4.420813 a 2.2104067,2.2104067 0 0 1 -2.210407,-2.210406 z m 15.472847,-2.210406 a 2.2104067,2.2104067 0 0 0 -2.210407,2.210406 v 4.420814 a 2.2104067,2.2104067 0 0 0 2.210407,2.210406 h 4.420813 a 2.2104067,2.2104067 0 0 0 2.210407,-2.210406 V 49.571408 A 2.2104067,2.2104067 0 0 0 90.472847,47.361002 Z M 57.316747,62.833848 a 2.2104067,2.2104067 0 0 1 2.210407,-2.210407 h 4.420813 a 2.2104067,2.2104067 0 0 1 2.210407,2.210407 v 4.420813 a 2.2104067,2.2104067 0 0 1 -2.210407,2.210407 h -4.420813 a 2.2104067,2.2104067 0 0 1 -2.210407,-2.210407 z m 15.472847,-2.210407 a 2.2104067,2.2104067 0 0 0 -2.210407,2.210407 v 4.420813 a 2.2104067,2.2104067 0 0 0 2.210407,2.210407 h 4.420813 a 2.2104067,2.2104067 0 0 0 2.210407,-2.210407 v -4.420813 a 2.2104067,2.2104067 0 0 0 -2.210407,-2.210407 z m 11.052033,2.210407 a 2.2104067,2.2104067 0 0 1 2.210407,-2.210407 h 4.420813 a 2.2104067,2.2104067 0 0 1 2.210407,2.210407 v 4.420813 a 2.2104067,2.2104067 0 0 1 -2.210407,2.210407 H 86.052034 A 2.2104067,2.2104067 0 0 1 83.841627,67.254661 Z M 59.527154,73.885881 a 2.2104067,2.2104067 0 0 0 -2.210407,2.210407 v 4.420813 a 2.2104067,2.2104067 0 0 0 2.210407,2.210407 h 4.420813 a 2.2104067,2.2104067 0 0 0 2.210407,-2.210407 v -4.420813 a 2.2104067,2.2104067 0 0 0 -2.210407,-2.210407 z m 11.052033,2.210407 a 2.2104067,2.2104067 0 0 1 2.210407,-2.210407 h 4.420813 a 2.2104067,2.2104067 0 0 1 2.210407,2.210407 v 4.420813 a 2.2104067,2.2104067 0 0 1 -2.210407,2.210407 h -4.420813 a 2.2104067,2.2104067 0 0 1 -2.210407,-2.210407 z m 15.472847,-2.210407 a 2.2104067,2.2104067 0 0 0 -2.210407,2.210407 v 4.420813 a 2.2104067,2.2104067 0 0 0 2.210407,2.210407 h 4.420813 a 2.2104067,2.2104067 0 0 0 2.210407,-2.210407 v -4.420813 a 2.2104067,2.2104067 0 0 0 -2.210407,-2.210407 z" style="fill:#000000" /><path d="m 48.475121,42.940188 a 4.4208133,4.4208133 0 0 1 4.420813,-4.420813 h 44.208133 a 4.4208133,4.4208133 0 0 1 4.420813,4.420813 v 61.891382 a 4.4208133,4.4208133 0 0 1 -4.420813,4.42082 H 52.895934 a 4.4208133,4.4208133 0 0 1 -4.420813,-4.42082 z m 48.628946,0 H 52.895934 v 61.891382 h 13.26244 V 93.779541 a 2.2104067,2.2104067 0 0 1 2.210406,-2.210406 h 13.26244 a 2.2104067,2.2104067 0 0 1 2.210407,2.210406 v 11.052029 h 13.26244 z" style="fill:#000000" /></g></svg>